<?xml version="1.0" encoding="UTF-8" standalone="no"?><!DOCTYPE svg PUBLIC "-//W3C//DTD SVG 1.1//EN" "http://www.w3.org/Graphics/SVG/1.1/DTD/svg11.dtd"><svg width="100%" height="100%" viewBox="0 0 256 256" version="1.1" xmlns="http://www.w3.org/2000/svg" xmlns:xlink="http://www.w3.org/1999/xlink" xml:space="preserve" xmlns:serif="http://www.serif.com/" style="fill-rule:evenodd;clip-rule:evenodd;stroke-linejoin:round;stroke-miterlimit:2;"><g><path d="M229.055,46.094c-2.159,1.367 -117.266,164.93 -116.352,166.091c1.432,1.819 15.072,0.54 17.301,0.911c2.592,0.432 3.887,2.864 3.887,6.751c0,3.887 -1.296,4.751 -3.887,4.751c-11.662,0 -26.731,-0.22 -38.443,-0.216c-11.613,0.005 -24.224,0.216 -34.987,0.216c-2.592,0 -3.456,-0.864 -3.456,-5.183c0,-3.456 0.864,-6.751 3.456,-6.751c8.207,-0.432 22.118,0.544 23.733,-1.207c1.003,-2.12 117.871,-164.662 117.217,-165.795c-0.93,-1.611 -10.935,-0.047 -20.006,-0.911c-3.024,0 -3.887,-2.432 -3.887,-6.751c0,-4.319 0.864,-5.183 3.887,-5.183c12.532,0 23.487,0.141 34.339,0.216c11.604,0.081 26.565,-0.216 37.363,-0.216c2.592,0 3.024,0.864 3.024,5.183c0,4.319 -0.432,7.183 -3.024,7.183c-6.479,0.864 -18.018,-0.448 -20.165,0.911Z" style="fill:#fff;stroke:#fff;stroke-width:20px;"/><path d="M206.055,36.094c-2.159,1.367 -117.266,164.93 -116.352,166.091c1.432,1.819 15.072,0.54 17.301,0.911c2.592,0.432 3.887,2.864 3.887,6.751c0,3.887 -1.296,4.751 -3.887,4.751c-11.662,0 -26.731,-0.22 -38.443,-0.216c-11.613,0.005 -24.224,0.216 -34.987,0.216c-2.592,0 -3.456,-0.864 -3.456,-5.183c0,-3.456 0.864,-6.751 3.456,-6.751c8.207,-0.432 22.118,0.544 23.733,-1.207c1.003,-2.12 117.871,-164.662 117.217,-165.795c-0.93,-1.611 -10.935,-0.047 -20.006,-0.911c-3.024,0 -3.887,-2.432 -3.887,-6.751c0,-4.319 0.864,-5.183 3.887,-5.183c12.532,0 23.487,0.141 34.339,0.216c11.604,0.081 26.565,-0.216 37.363,-0.216c2.592,0 3.024,0.864 3.024,5.183c0,4.319 -0.432,7.183 -3.024,7.183c-6.479,0.864 -18.018,-0.448 -20.165,0.911Z" style="fill:#fff;stroke:#fff;stroke-width:20px;"/><path d="M184.055,26.094c-2.159,1.367 -117.266,164.93 -116.352,166.091c1.432,1.819 15.072,0.54 17.301,0.911c2.592,0.432 3.887,2.864 3.887,6.751c0,3.887 -1.296,4.751 -3.887,4.751c-11.662,0 -26.731,-0.22 -38.443,-0.216c-11.613,0.005 -24.224,0.216 -34.987,0.216c-2.592,0 -3.456,-0.864 -3.456,-5.183c0,-3.456 0.864,-6.751 3.456,-6.751c8.207,-0.432 22.118,0.544 23.733,-1.207c1.003,-2.12 117.871,-164.662 117.217,-165.795c-0.93,-1.611 -10.935,-0.047 -20.006,-0.911c-3.024,0 -3.887,-2.432 -3.887,-6.751c0,-4.319 0.864,-5.183 3.887,-5.183c12.532,0 23.487,0.141 34.339,0.216c11.604,0.081 26.565,-0.216 37.363,-0.216c2.592,0 3.024,0.864 3.024,5.183c0,4.319 -0.432,7.183 -3.024,7.183c-6.479,0.864 -18.018,-0.448 -20.165,0.911Z" style="fill:#fff;stroke:#fff;stroke-width:20px;"/></g><path d="M157.47,232.414c0.089,-0.408 -0.543,-1.689 -1.769,-3.688c-12.962,-21.122 -116.466,-154.435 -117.583,-155.77c-1.193,-1.426 -17.334,-0.577 -26.037,-1.006c-3.072,0 -4.095,-3.858 -4.095,-8.148c0,-4.29 1.024,-5.148 4.095,-5.148c17.406,0.858 85.493,0.429 101.875,0c3.584,0 4.607,0.858 4.607,4.719c0,4.29 -1.024,8.148 -4.607,8.148c-2.585,0 -22.455,-0.559 -23.525,1.436c-2.906,5.418 114.455,157.518 118.864,161.457c2.824,2.523 20.87,2.436 29.573,2.865c3.072,0.429 4.095,3.287 4.095,6.719c0,4.29 -1.024,5.148 -4.095,5.148c-16.382,-0.429 -86.517,-0.429 -103.923,0c-2.56,0 -4.095,-0.858 -4.095,-4.719c0,-3.432 1.536,-6.719 4.095,-6.719c13.31,-0.858 20.989,0.713 22.525,-5.294Z" style="fill:#52525c;stroke:#fff;stroke-width:20px;"/><g><path d="M229.055,46.094c-2.159,1.367 -117.266,164.93 -116.352,166.091c1.432,1.819 15.072,0.54 17.301,0.911c2.592,0.432 3.887,2.864 3.887,6.751c0,3.887 -1.296,4.751 -3.887,4.751c-11.662,0 -26.731,-0.22 -38.443,-0.216c-11.613,0.005 -24.224,0.216 -34.987,0.216c-2.592,0 -3.456,-0.864 -3.456,-5.183c0,-3.456 0.864,-6.751 3.456,-6.751c8.207,-0.432 22.118,0.544 23.733,-1.207c1.003,-2.12 117.871,-164.662 117.217,-165.795c-0.93,-1.611 -10.935,-0.047 -20.006,-0.911c-3.024,0 -3.887,-2.432 -3.887,-6.751c0,-4.319 0.864,-5.183 3.887,-5.183c12.532,0 23.487,0.141 34.339,0.216c11.604,0.081 26.565,-0.216 37.363,-0.216c2.592,0 3.024,0.864 3.024,5.183c0,4.319 -0.432,7.183 -3.024,7.183c-6.479,0.864 -18.018,-0.448 -20.165,0.911Z" style="fill:#ffa900;stroke:#000001;stroke-width:2.08px;"/><path d="M206.055,36.094c-2.159,1.367 -117.266,164.93 -116.352,166.091c1.432,1.819 15.072,0.54 17.301,0.911c2.592,0.432 3.887,2.864 3.887,6.751c0,3.887 -1.296,4.751 -3.887,4.751c-11.662,0 -26.731,-0.22 -38.443,-0.216c-11.613,0.005 -24.224,0.216 -34.987,0.216c-2.592,0 -3.456,-0.864 -3.456,-5.183c0,-3.456 0.864,-6.751 3.456,-6.751c8.207,-0.432 22.118,0.544 23.733,-1.207c1.003,-2.12 117.871,-164.662 117.217,-165.795c-0.93,-1.611 -10.935,-0.047 -20.006,-0.911c-3.024,0 -3.887,-2.432 -3.887,-6.751c0,-4.319 0.864,-5.183 3.887,-5.183c12.532,0 23.487,0.141 34.339,0.216c11.604,0.081 26.565,-0.216 37.363,-0.216c2.592,0 3.024,0.864 3.024,5.183c0,4.319 -0.432,7.183 -3.024,7.183c-6.479,0.864 -18.018,-0.448 -20.165,0.911Z" style="fill:#ffa900;stroke:#000001;stroke-width:2.08px;"/><path d="M184.055,26.094c-2.159,1.367 -117.266,164.93 -116.352,166.091c1.432,1.819 15.072,0.54 17.301,0.911c2.592,0.432 3.887,2.864 3.887,6.751c0,3.887 -1.296,4.751 -3.887,4.751c-11.662,0 -26.731,-0.22 -38.443,-0.216c-11.613,0.005 -24.224,0.216 -34.987,0.216c-2.592,0 -3.456,-0.864 -3.456,-5.183c0,-3.456 0.864,-6.751 3.456,-6.751c8.207,-0.432 22.118,0.544 23.733,-1.207c1.003,-2.12 117.871,-164.662 117.217,-165.795c-0.93,-1.611 -10.935,-0.047 -20.006,-0.911c-3.024,0 -3.887,-2.432 -3.887,-6.751c0,-4.319 0.864,-5.183 3.887,-5.183c12.532,0 23.487,0.141 34.339,0.216c11.604,0.081 26.565,-0.216 37.363,-0.216c2.592,0 3.024,0.864 3.024,5.183c0,4.319 -0.432,7.183 -3.024,7.183c-6.479,0.864 -18.018,-0.448 -20.165,0.911Z" style="fill:#ffa900;stroke:#000001;stroke-width:2.08px;"/></g><path d="M157.47,232.414c0.089,-0.408 -0.543,-1.689 -1.769,-3.688c-12.962,-21.122 -116.466,-154.435 -117.583,-155.77c-1.193,-1.426 -17.334,-0.577 -26.037,-1.006c-3.072,0 -4.095,-3.858 -4.095,-8.148c0,-4.29 1.024,-5.148 4.095,-5.148c17.406,0.858 85.493,0.429 101.875,0c3.584,0 4.607,0.858 4.607,4.719c0,4.29 -1.024,8.148 -4.607,8.148c-2.585,0 -22.455,-0.559 -23.525,1.436c-2.906,5.418 114.455,157.518 118.864,161.457c2.824,2.523 20.87,2.436 29.573,2.865c3.072,0.429 4.095,3.287 4.095,6.719c0,4.29 -1.024,5.148 -4.095,5.148c-16.382,-0.429 -86.517,-0.429 -103.923,0c-2.56,0 -4.095,-0.858 -4.095,-4.719c0,-3.432 1.536,-6.719 4.095,-6.719c13.31,-0.858 20.989,0.713 22.525,-5.294Z" style="fill:#404040;stroke:#000;stroke-width:2.29px;"/></svg>