<?xml version="1.0" encoding="UTF-8" standalone="no"?>
<!DOCTYPE svg PUBLIC "-//W3C//DTD SVG 1.1//EN" "http://www.w3.org/Graphics/SVG/1.1/DTD/svg11.dtd">
<svg width="100%" height="100%" viewBox="0 0 299 298" version="1.1" xmlns="http://www.w3.org/2000/svg" xmlns:xlink="http://www.w3.org/1999/xlink" xml:space="preserve" xmlns:serif="http://www.serif.com/" style="fill-rule:evenodd;clip-rule:evenodd;stroke-linejoin:round;stroke-miterlimit:2;">
    <g transform="matrix(1,0,0,1,-2032.129655,-768.267819)">
        <g id="Favicon">
        </g>
        <g id="Favicon1" serif:id="Favicon" transform="matrix(1,0,0,1,100,-154)">
            <g id="Favicon---Black---Background" serif:id="Favicon - Black - Background" transform="matrix(0.918224,0,0,0.918224,1523.259448,220.889332)">
                <path d="M727.717,985.375C730.317,985.375 732.367,986.575 733.867,988.975C735.367,991.375 736.117,994.675 736.117,998.875C736.117,1006.675 734.217,1012.875 730.417,1017.475C720.617,1029.075 710.917,1038.025 701.317,1044.325C691.717,1050.625 681.017,1053.775 669.217,1053.775C651.417,1053.775 637.967,1048.475 628.867,1037.875C619.767,1027.275 612.417,1011.775 606.817,991.375L596.617,954.175L525.817,1041.775C521.817,1046.775 517.717,1050.025 513.517,1051.525C509.317,1053.025 504.417,1053.775 498.817,1053.775C493.217,1053.775 488.567,1052.725 484.867,1050.625C481.167,1048.525 479.317,1045.575 479.317,1041.775C479.317,1036.775 482.217,1031.075 488.017,1024.675L585.217,913.975L575.617,878.875C571.017,862.475 565.917,850.975 560.317,844.375C554.717,837.775 548.317,834.475 541.117,834.475C530.517,834.475 518.117,842.175 503.917,857.575C501.517,860.175 498.817,861.475 495.817,861.475C492.817,861.475 490.267,860.325 488.167,858.025C486.067,855.725 485.017,852.775 485.017,849.175C485.017,843.175 487.917,836.675 493.717,829.675C501.917,820.075 510.817,812.375 520.417,806.575C530.017,800.775 541.417,797.875 554.617,797.875C568.817,797.875 580.517,802.325 589.717,811.225C598.917,820.125 606.217,834.475 611.617,854.275L617.617,875.275L670.117,811.375C674.117,806.575 678.217,803.175 682.417,801.175C686.617,799.175 691.717,798.175 697.717,798.175C703.117,798.175 707.367,799.175 710.467,801.175C713.567,803.175 715.117,805.975 715.117,809.575C715.117,814.375 712.417,819.875 707.017,826.075L629.017,916.075L646.117,977.275C649.117,987.875 651.817,995.975 654.217,1001.575C656.617,1007.175 659.567,1011.325 663.067,1014.025C666.567,1016.725 671.217,1018.075 677.017,1018.075C683.217,1018.075 689.667,1015.875 696.367,1011.475C703.067,1007.075 710.817,999.775 719.617,989.575C722.017,986.775 724.717,985.375 727.717,985.375Z" style="fill:rgb(54,69,79);fill-rule:nonzero;stroke:white;stroke-width:68.07px;"/>
            </g>
            <g id="Favicon---Black" serif:id="Favicon - Black" transform="matrix(0.918224,0,0,0.918224,1523.259448,220.889332)">
                <path d="M727.717,985.375C730.317,985.375 732.367,986.575 733.867,988.975C735.367,991.375 736.117,994.675 736.117,998.875C736.117,1006.675 734.217,1012.875 730.417,1017.475C720.617,1029.075 710.917,1038.025 701.317,1044.325C691.717,1050.625 681.017,1053.775 669.217,1053.775C651.417,1053.775 637.967,1048.475 628.867,1037.875C619.767,1027.275 612.417,1011.775 606.817,991.375L596.617,954.175L525.817,1041.775C521.817,1046.775 517.717,1050.025 513.517,1051.525C509.317,1053.025 504.417,1053.775 498.817,1053.775C493.217,1053.775 488.567,1052.725 484.867,1050.625C481.167,1048.525 479.317,1045.575 479.317,1041.775C479.317,1036.775 482.217,1031.075 488.017,1024.675L585.217,913.975L575.617,878.875C571.017,862.475 565.917,850.975 560.317,844.375C554.717,837.775 548.317,834.475 541.117,834.475C530.517,834.475 518.117,842.175 503.917,857.575C501.517,860.175 498.817,861.475 495.817,861.475C492.817,861.475 490.267,860.325 488.167,858.025C486.067,855.725 485.017,852.775 485.017,849.175C485.017,843.175 487.917,836.675 493.717,829.675C501.917,820.075 510.817,812.375 520.417,806.575C530.017,800.775 541.417,797.875 554.617,797.875C568.817,797.875 580.517,802.325 589.717,811.225C598.917,820.125 606.217,834.475 611.617,854.275L617.617,875.275L670.117,811.375C674.117,806.575 678.217,803.175 682.417,801.175C686.617,799.175 691.717,798.175 697.717,798.175C703.117,798.175 707.367,799.175 710.467,801.175C713.567,803.175 715.117,805.975 715.117,809.575C715.117,814.375 712.417,819.875 707.017,826.075L629.017,916.075L646.117,977.275C649.117,987.875 651.817,995.975 654.217,1001.575C656.617,1007.175 659.567,1011.325 663.067,1014.025C666.567,1016.725 671.217,1018.075 677.017,1018.075C683.217,1018.075 689.667,1015.875 696.367,1011.475C703.067,1007.075 710.817,999.775 719.617,989.575C722.017,986.775 724.717,985.375 727.717,985.375Z" style="fill:rgb(54,69,79);fill-rule:nonzero;"/>
            </g>
        </g>
        <g id="Favicon2" serif:id="Favicon">
        </g>
    </g>
</svg>
