<?xml version="1.0" encoding="UTF-8" standalone="no"?>
<!-- Created with Inkscape (http://www.inkscape.org/) -->

<svg
   width="32.173645mm"
   height="11.78125mm"
   viewBox="0 0 32.173645 11.78125"
   version="1.1"
   id="svg1"
   inkscape:version="1.4.2 (f4327f4, 2025-05-13)"
   sodipodi:docname="IntelliumX-v01.svg"
   xmlns:inkscape="http://www.inkscape.org/namespaces/inkscape"
   xmlns:sodipodi="http://sodipodi.sourceforge.net/DTD/sodipodi-0.dtd"
   xmlns:xlink="http://www.w3.org/1999/xlink"
   xmlns="http://www.w3.org/2000/svg"
   xmlns:svg="http://www.w3.org/2000/svg">
  <sodipodi:namedview
     id="namedview1"
     pagecolor="#868686"
     bordercolor="#000000"
     borderopacity="0.25"
     inkscape:showpageshadow="2"
     inkscape:pageopacity="0.0"
     inkscape:pagecheckerboard="0"
     inkscape:deskcolor="#d1d1d1"
     inkscape:document-units="mm"
     inkscape:zoom="2.0334082"
     inkscape:cx="103.52078"
     inkscape:cy="63.686181"
     inkscape:window-width="1920"
     inkscape:window-height="1009"
     inkscape:window-x="-8"
     inkscape:window-y="-8"
     inkscape:window-maximized="1"
     inkscape:current-layer="layer1" />
  <defs
     id="defs1" />
  <g
     inkscape:label="Layer 1"
     inkscape:groupmode="layer"
     id="layer1"
     transform="translate(-26.753906,-118.04102)">
    <path
       style="font-size:12.7px;line-height:1.25;font-family:sans-serif;fill:#ffffff;stroke-width:0.264583"
       sodipodi:type="inkscape:offset"
       inkscape:radius="0.61558461"
       inkscape:original="M 0 0 L 50.226562 121.05664 C 50.160334 121.08843 50.09336 121.09509 50.027344 121.12695 C 49.962891 121.0651 49.063151 120.94141 48.677734 120.94141 A 0.97598757 0.97598757 0 0 0 48.460938 121.15625 A 0.97598757 0.97598757 0 0 0 48.246094 120.94141 L 47.001953 120.94141 A 0.97598757 0.97598757 0 0 0 46.734375 121.20898 C 46.645182 121.11979 45.992839 120.94141 45.755859 120.94141 C 45.755859 120.67448 45.104818 119.48958 44.779297 119.16406 L 43.609375 119.16406 A 0.97598757 0.97598757 0 0 0 43.101562 118.65625 L 41.871094 118.65625 A 0.97598757 0.97598757 0 0 0 41.648438 118.87891 C 41.574219 118.80469 40.604167 118.65625 40.193359 118.65625 C 39.867839 118.98177 39.216797 120.69922 39.216797 121.23242 C 38.892778 121.11782 38.610251 120.89062 38.263672 120.89062 C 37.963492 120.89062 37.711805 121.07065 37.441406 121.18945 L 38.257812 123.83203 L 38.320312 123.89453 C 38.306103 123.89641 38.27407 123.92383 38.263672 123.92383 C 38.252381 123.92383 38.215638 123.89126 38.199219 123.88867 L 37.375 121.21289 C 37.19362 121.29775 36.987128 121.30312 36.818359 121.41406 C 36.660807 121.25651 35.930339 120.94141 35.722656 120.94141 C 35.722656 120.70378 35.071615 119.57747 34.746094 119.25195 C 34.339844 119.25195 32.876302 119.90299 32.550781 120.22852 L 32.550781 121.07422 C 32.401692 121.03764 32.293035 120.89062 32.142578 120.89062 C 32.077956 120.89062 32.012437 120.93972 31.947266 120.95508 L 0 0 z M 0 0 L 31.671875 121.04688 C 31.585806 121.08409 31.499354 121.09007 31.414062 121.13086 C 31.347656 121.06771 30.816406 120.94141 30.617188 120.94141 C 30.617188 120.53906 29.966146 119.08333 29.640625 118.75781 C 29.208984 118.75781 27.694661 119.40885 27.369141 119.73438 C 27.369141 122.54492 28.020182 128.81706 28.345703 129.14258 C 28.777344 129.14258 29.779948 129.00326 29.849609 128.93359 C 29.919271 129.00326 30.880208 129.14258 31.291016 129.14258 A 0.97598757 0.97598757 0 0 0 31.570312 128.86328 A 0.97598757 0.97598757 0 0 0 31.849609 129.14258 L 33.09375 129.14258 A 0.97598757 0.97598757 0 0 0 33.554688 128.68164 C 33.994655 128.97502 34.48029 129.20703 35.011719 129.20703 C 35.580972 129.20703 36.124746 128.96452 36.558594 128.58984 C 37.027775 129.00646 37.633612 129.20703 38.25 129.20703 C 38.790362 129.20703 39.282284 128.97377 39.726562 128.67578 C 39.882161 128.83138 41.014974 129.14258 41.425781 129.14258 A 0.97598757 0.97598757 0 0 0 41.648438 128.91992 A 0.97598757 0.97598757 0 0 0 41.871094 129.14258 L 43.101562 129.14258 A 0.97598757 0.97598757 0 0 0 43.324219 128.91992 C 43.398438 128.99414 44.36849 129.14258 44.779297 129.14258 A 0.97598757 0.97598757 0 0 0 45.09375 128.82812 C 45.414071 129.04791 45.784186 129.20703 46.162109 129.20703 C 46.395952 129.20703 46.662784 129.09486 46.917969 128.98633 C 46.971354 129.03841 47.856771 129.14258 48.246094 129.14258 A 0.97598757 0.97598757 0 0 0 48.460938 128.92578 A 0.97598757 0.97598757 0 0 0 48.677734 129.14258 L 49.910156 129.14258 A 0.97598757 0.97598757 0 0 0 50.189453 128.86328 C 50.282552 128.95638 51.264323 129.14258 51.662109 129.14258 A 0.97598757 0.97598757 0 0 0 51.935547 128.86914 A 0.97598757 0.97598757 0 0 0 52.208984 129.14258 L 53.453125 129.14258 A 0.97598757 0.97598757 0 0 0 53.539062 129.05664 C 53.598958 129.08529 54.583333 129.14258 55.015625 129.14258 A 0.97598757 0.97598757 0 0 0 55.523438 128.71289 A 0.97598757 0.97598757 0 0 0 56.03125 129.14258 L 57.337891 129.14258 A 0.97598757 0.97598757 0 0 0 58.291016 127.95898 L 57.373047 123.72852 L 58.251953 119.95508 A 0.97598757 0.97598757 0 0 0 57.300781 118.75781 L 56.042969 118.75781 A 0.97598757 0.97598757 0 0 0 55.546875 119.17383 C 55.382161 119.03516 54.189453 118.75781 53.757812 118.75781 C 53.440755 119.1556 52.994141 120.77018 53.087891 121.17969 C 52.872356 121.08762 52.705506 120.89062 52.462891 120.89062 C 52.164803 120.89062 51.859509 121.02263 51.574219 121.19141 C 51.300084 121.03585 51.012612 120.89062 50.697266 120.89062 C 50.61006 120.89062 50.524211 120.95238 50.4375 120.98242 L 0 0 z M 0 0 L 37.375 121.21289 C 37.39658 121.20279 37.419642 121.19902 37.441406 121.18945 L 0 0 z M 46.103516 128.19141 A 0.97598757 0.97598757 0 0 0 46.53125 128.60938 L 46.113281 128.60938 L 46.103516 128.19141 z "
       xlink:href="#path7"
       id="path8"
       inkscape:href="#path7"
       d="m 40.193359,118.04102 c -0.833968,-5e-4 -1.592286,0.75782 -1.591797,1.59179 v 0.75196 c -0.137391,-0.039 -0.158387,-0.10938 -0.33789,-0.10938 -0.526256,0 -0.965846,0.18407 -1.365235,0.40039 -0.107422,-0.091 -0.165307,-0.23351 -0.292968,-0.29297 a 0.61564617,0.61564617 0 0 0 -0.259766,-0.0566 h -0.0078 v -0.0977 c 4.97e-4,-0.83398 -0.757823,-1.59229 -1.591797,-1.5918 h -1.21875 c -0.833975,-4.9e-4 -1.592295,0.75782 -1.591797,1.5918 v 0.10937 c -0.142303,0.0242 -0.245696,0.0612 -0.357422,0.10742 -0.0023,-0.002 -0.0036,-0.004 -0.0059,-0.006 a 0.61564617,0.61564617 0 0 0 -0.339844,-0.10742 v -0.59765 c 4.98e-4,-0.83398 -0.757822,-1.59229 -1.591797,-1.5918 h -1.294922 c -0.833974,-4.9e-4 -1.592295,0.75782 -1.591797,1.5918 v 8.43164 c -4.89e-4,0.83396 0.757828,1.59228 1.591797,1.59179 h 1.294922 a 0.61564617,0.61564617 0 0 0 0.208984,-0.0684 0.61564617,0.61564617 0 0 0 0.208985,0.0684 h 1.232422 a 0.61564617,0.61564617 0 0 0 0.279296,-0.084 0.61564617,0.61564617 0 0 0 0.279297,0.084 h 1.244141 a 0.61564617,0.61564617 0 0 0 0.265625,-0.0605 c 0.120593,-0.0575 0.175038,-0.19147 0.277344,-0.27735 0.40451,0.21862 0.848751,0.40235 1.375,0.40235 0.581211,0 1.098459,-0.22327 1.558593,-0.52344 0.515842,0.32205 1.088972,0.52344 1.679688,0.52344 0.533789,0 0.985595,-0.18542 1.396484,-0.40821 0.104765,0.0883 0.161194,0.22674 0.285157,0.28516 a 0.61564617,0.61564617 0 0 0 0.261718,0.0586 h 1.232422 a 0.61564617,0.61564617 0 0 0 0.222656,-0.0723 0.61564617,0.61564617 0 0 0 0.222657,0.0723 h 1.230468 a 0.61564617,0.61564617 0 0 0 0.222657,-0.0723 0.61564617,0.61564617 0 0 0 0.222656,0.0723 h 1.232422 a 0.61564617,0.61564617 0 0 0 0.324219,-0.0918 c 0.06224,-0.0386 0.098,-0.10743 0.154296,-0.1543 0.287846,0.13438 0.552605,0.31055 0.904297,0.31055 0.266757,0 0.427206,-0.0932 0.617188,-0.16602 a 0.61564617,0.61564617 0 0 0 0.298828,0.10156 h 1.167969 a 0.61564617,0.61564617 0 0 0 0.214843,-0.0703 0.61564617,0.61564617 0 0 0 0.216797,0.0703 h 1.232422 a 0.61564617,0.61564617 0 0 0 0.279297,-0.084 0.61564617,0.61564617 0 0 0 0.279297,0.084 h 1.193359 a 0.61564617,0.61564617 0 0 0 0.273438,-0.082 0.61564617,0.61564617 0 0 0 0.273437,0.082 h 1.244141 a 0.61564617,0.61564617 0 0 0 0.08203,-0.0312 0.61564617,0.61564617 0 0 0 0.183594,0.0312 h 1.296875 a 0.61564617,0.61564617 0 0 0 0.212891,-0.0371 c 0.123296,-0.0456 0.186748,-0.17533 0.294921,-0.25 0.108174,0.0747 0.171626,0.20437 0.294922,0.25 a 0.61564617,0.61564617 0 0 0 0.212891,0.0371 h 1.306641 c 0.473391,-2.5e-4 0.941371,-0.22504 1.238281,-0.59375 0.29691,-0.3687 0.417106,-0.87338 0.316406,-1.33593 l -0.888672,-4.09571 0.847656,-3.63867 c 0.108264,-0.46507 -0.0077,-0.97573 -0.304687,-1.34961 -0.297028,-0.37388 -0.768588,-0.60186 -1.246094,-0.60156 h -1.257812 a 0.61564617,0.61564617 0 0 0 -0.216797,0.0391 c -0.115635,0.0435 -0.176967,0.16325 -0.279297,0.23242 -0.101364,-0.0686 -0.160914,-0.189 -0.275391,-0.23242 a 0.61564617,0.61564617 0 0 0 -0.21875,-0.0391 h -1.294922 c -0.476169,1.5e-4 -0.947349,0.22725 -1.24414,0.59961 -0.296791,0.37236 -0.412693,0.88149 -0.306641,1.3457 l 0.05664,0.25195 c -0.257023,0.0332 -0.475965,0.11823 -0.683594,0.22071 -0.254389,-0.12989 -0.505934,-0.28516 -0.882812,-0.28516 -0.253475,0 -0.354893,0.0929 -0.515625,0.16406 a 0.61564617,0.61564617 0 0 0 -0.347657,-0.11328 h -1.15625 a 0.61564617,0.61564617 0 0 0 -0.216797,0.0703 0.61564617,0.61564617 0 0 0 -0.214843,-0.0703 h -1.244141 a 0.61564617,0.61564617 0 0 0 -0.267578,0.0801 0.61564617,0.61564617 0 0 0 -0.267578,-0.0801 h -0.0957 v -0.18554 c 4.89e-4,-0.83397 -0.757828,-1.59229 -1.591797,-1.5918 h -0.976563 c -0.149905,-0.16182 -0.254572,-0.36937 -0.457031,-0.45703 a 0.61564617,0.61564617 0 0 0 -0.244141,-0.0508 h -1.230468 a 0.61564617,0.61564617 0 0 0 -0.222657,0.0723 0.61564617,0.61564617 0 0 0 -0.222656,-0.0723 z m -8.33789,3.77734 -0.06836,0.28516 h -0.203125 l -0.0098,-0.20313 z m 18.61914,0 -0.06836,0.28516 h -0.203125 l -0.0098,-0.20313 z m -12.210937,1.49023 c -1.86e-4,0 0.02804,0.005 0.04102,0.006 l 0.304688,0.96094 -0.703125,-0.008 0.324219,-0.95508 c 0.0093,-8.4e-4 0.03335,-0.004 0.0332,-0.004 z m 8.267578,4.68555 h 0.183594 l 0.0039,0.18359 -0.246094,0.0645 z" />
    <path
       style="font-size:12.7px;line-height:1.25;font-family:sans-serif;fill:#000000;stroke-width:0.264583"
       sodipodi:type="inkscape:offset"
       inkscape:radius="0.97588998"
       inkscape:original="M 40.193359 119.63281 L 40.193359 128.16602 L 41.425781 128.16602 L 41.425781 119.63281 L 40.193359 119.63281 z M 41.871094 119.63281 L 41.871094 128.16602 L 43.101562 128.16602 L 43.101562 119.63281 L 41.871094 119.63281 z M 28.345703 119.73438 L 28.345703 128.16602 L 29.640625 128.16602 L 29.640625 119.73438 L 28.345703 119.73438 z M 53.757812 119.73438 L 54.708984 123.89844 L 53.71875 128.16602 L 55.015625 128.16602 L 55.498047 125.30859 L 55.548828 125.30859 L 56.03125 128.16602 L 57.337891 128.16602 L 56.373047 123.7207 L 57.300781 119.73438 L 56.042969 119.73438 L 55.574219 122.38867 L 55.523438 122.38867 L 55.052734 119.73438 L 53.757812 119.73438 z M 43.546875 120.14062 L 43.546875 121.26953 L 44.779297 121.26953 L 44.779297 120.14062 L 43.546875 120.14062 z M 33.527344 120.22852 L 33.527344 126.74414 C 33.527344 127.74744 33.995719 128.23047 35.011719 128.23047 C 36.015019 128.23047 36.345703 127.74744 36.345703 126.74414 L 36.345703 124.6875 L 35.291016 124.6875 L 35.291016 126.74414 C 35.291016 126.99814 35.203191 127.125 35.025391 127.125 C 34.834891 127.125 34.746094 126.99814 34.746094 126.74414 L 34.746094 123.02344 L 36.345703 123.02344 L 36.345703 121.91797 L 34.746094 121.91797 L 34.746094 120.22852 L 33.527344 120.22852 z M 32.142578 121.86719 C 31.786978 121.86719 31.494216 122.03304 31.291016 122.46484 L 31.240234 122.46484 L 31.214844 121.91797 L 30.058594 121.91797 L 30.058594 128.16602 L 31.291016 128.16602 L 31.291016 123.21289 C 31.341816 123.02239 31.443303 122.93359 31.595703 122.93359 C 31.760803 122.93359 31.849609 123.04875 31.849609 123.25195 L 31.849609 128.16602 L 33.09375 128.16602 L 33.09375 122.99805 C 33.09375 122.28685 32.701378 121.86719 32.142578 121.86719 z M 38.263672 121.86719 C 37.247672 121.86719 36.777344 122.35022 36.777344 123.35352 L 36.777344 126.74414 C 36.777344 127.74744 37.2467 128.23047 38.25 128.23047 C 39.266 128.23047 39.761719 127.73474 39.761719 126.74414 L 39.761719 126.05859 L 38.542969 126.05859 L 38.542969 126.76953 C 38.542969 127.02353 38.4405 127.15039 38.25 127.15039 C 38.0722 127.15039 37.970703 127.02353 37.970703 126.76953 L 37.970703 125.39844 L 39.761719 125.39844 L 39.761719 123.35352 C 39.761719 122.35022 39.266972 121.86719 38.263672 121.86719 z M 50.697266 121.86719 C 50.367066 121.86719 50.100656 122.03304 49.910156 122.46484 L 49.859375 122.46484 L 49.833984 121.91797 L 48.677734 121.91797 L 48.677734 128.16602 L 49.910156 128.16602 L 49.910156 123.21289 C 49.960956 123.02239 50.062444 122.93359 50.214844 122.93359 C 50.379944 122.93359 50.46875 123.04875 50.46875 123.25195 L 50.46875 128.16602 L 51.662109 128.16602 L 51.662109 123.21289 C 51.700209 123.02239 51.800725 122.93359 51.953125 122.93359 C 52.118225 122.93359 52.208984 123.04875 52.208984 123.25195 L 52.208984 128.16602 L 53.453125 128.16602 L 53.453125 122.99805 C 53.453125 122.31225 53.021691 121.86719 52.462891 121.86719 C 52.119991 121.86719 51.800866 122.04474 51.572266 122.52734 C 51.432566 122.10824 51.090966 121.86719 50.697266 121.86719 z M 43.546875 121.91797 L 43.546875 128.16602 L 44.779297 128.16602 L 44.779297 121.91797 L 43.546875 121.91797 z M 45.222656 121.91797 L 45.222656 126.71875 C 45.222656 127.58235 45.336609 128.23047 46.162109 128.23047 C 46.555809 128.23047 46.785072 128.07731 47.013672 127.63281 L 47.064453 127.63281 L 47.078125 128.16602 L 48.246094 128.16602 L 48.246094 121.91797 L 47.001953 121.91797 L 47.001953 126.71875 C 47.001953 127.04895 46.950275 127.16211 46.734375 127.16211 C 46.505775 127.16211 46.466797 127.04895 46.466797 126.71875 L 46.466797 121.91797 L 45.222656 121.91797 z M 38.263672 122.94727 C 38.454172 122.94727 38.542969 123.06144 38.542969 123.32812 L 38.542969 124.52148 L 37.970703 124.52148 L 37.970703 123.32812 C 37.970703 123.06144 38.073172 122.94727 38.263672 122.94727 z "
       xlink:href="#path2"
       id="path7"
       inkscape:href="#path2"
       d="m 40.193359,118.65625 a 0.97598757,0.97598757 0 0 0 -0.976562,0.97656 v 1.59961 c -0.324019,-0.1146 -0.606546,-0.34179 -0.953125,-0.34179 -0.52742,-1e-5 -1.007,0.23529 -1.445313,0.52343 a 0.97598757,0.97598757 0 0 0 -0.472656,-0.47265 h -0.623047 v -0.71289 a 0.97598757,0.97598757 0 0 0 -0.976562,-0.97657 h -1.21875 a 0.97598757,0.97598757 0 0 0 -0.976563,0.97657 v 0.8457 c -0.149089,-0.0366 -0.257746,-0.18359 -0.408203,-0.18359 -0.241024,0 -0.487216,0.12483 -0.728516,0.24023 a 0.97598757,0.97598757 0 0 0 -0.199218,-0.18945 h -0.597657 v -1.20703 a 0.97598757,0.97598757 0 0 0 -0.976562,-0.97657 h -1.294922 a 0.97598757,0.97598757 0 0 0 -0.976562,0.97657 v 8.43164 a 0.97598757,0.97598757 0 0 0 0.976562,0.97656 h 1.294922 a 0.97598757,0.97598757 0 0 0 0.208984,-0.20899 0.97598757,0.97598757 0 0 0 0.208985,0.20899 h 1.232422 a 0.97598757,0.97598757 0 0 0 0.279296,-0.2793 0.97598757,0.97598757 0 0 0 0.279297,0.2793 h 1.244141 a 0.97598757,0.97598757 0 0 0 0.460937,-0.46094 c 0.439968,0.29338 0.925603,0.52539 1.457032,0.52539 0.569253,0 1.113027,-0.24251 1.546875,-0.61719 0.469181,0.41662 1.075018,0.61719 1.691406,0.61719 0.540362,0 1.032284,-0.23326 1.476562,-0.53125 a 0.97598757,0.97598757 0 0 0 0.466797,0.4668 h 1.232422 a 0.97598757,0.97598757 0 0 0 0.222656,-0.22266 0.97598757,0.97598757 0 0 0 0.222657,0.22266 h 1.230468 a 0.97598757,0.97598757 0 0 0 0.222657,-0.22266 0.97598757,0.97598757 0 0 0 0.222656,0.22266 h 1.232422 a 0.97598757,0.97598757 0 0 0 0.314453,-0.31446 c 0.320321,0.21979 0.690436,0.37891 1.068359,0.37891 0.233843,0 0.500675,-0.11217 0.75586,-0.2207 a 0.97598757,0.97598757 0 0 0 0.160156,0.15625 h 1.167969 a 0.97598757,0.97598757 0 0 0 0.214843,-0.2168 0.97598757,0.97598757 0 0 0 0.216797,0.2168 h 1.232422 a 0.97598757,0.97598757 0 0 0 0.279297,-0.2793 0.97598757,0.97598757 0 0 0 0.279297,0.2793 h 1.193359 a 0.97598757,0.97598757 0 0 0 0.273438,-0.27344 0.97598757,0.97598757 0 0 0 0.273437,0.27344 h 1.244141 a 0.97598757,0.97598757 0 0 0 0.08594,-0.0859 0.97598757,0.97598757 0 0 0 0.179688,0.0859 h 1.296875 a 0.97598757,0.97598757 0 0 0 0.507812,-0.42969 0.97598757,0.97598757 0 0 0 0.507813,0.42969 h 1.306641 a 0.97598757,0.97598757 0 0 0 0.953125,-1.1836 l -0.917969,-4.23046 0.878906,-3.77344 a 0.97598757,0.97598757 0 0 0 -0.951172,-1.19727 h -1.257812 a 0.97598757,0.97598757 0 0 0 -0.496094,0.41602 0.97598757,0.97598757 0 0 0 -0.494141,-0.41602 h -1.294922 a 0.97598757,0.97598757 0 0 0 -0.951171,1.19336 l 0.28125,1.22852 c -0.215535,-0.0921 -0.382385,-0.28907 -0.625,-0.28906 -0.298088,0 -0.603382,0.132 -0.888672,0.30078 -0.274135,-0.15556 -0.561607,-0.30078 -0.876953,-0.30078 -0.224856,0 -0.447937,0.12919 -0.669922,0.23632 a 0.97598757,0.97598757 0 0 0 -0.19336,-0.18554 h -1.15625 a 0.97598757,0.97598757 0 0 0 -0.216797,0.21484 0.97598757,0.97598757 0 0 0 -0.214843,-0.21484 h -1.244141 a 0.97598757,0.97598757 0 0 0 -0.267578,0.26757 0.97598757,0.97598757 0 0 0 -0.267578,-0.26757 h -0.710938 v -0.80078 a 0.97598757,0.97598757 0 0 0 -0.976562,-0.97657 h -1.169922 a 0.97598757,0.97598757 0 0 0 -0.507813,-0.50781 h -1.230468 a 0.97598757,0.97598757 0 0 0 -0.222657,0.22266 0.97598757,0.97598757 0 0 0 -0.222656,-0.22266 z m -8.40625,2.83203 h 0.384766 l 0.01758,0.38477 a 0.97598757,0.97598757 0 0 0 -0.402344,-0.38477 z m 18.619141,0 h 0.384766 l 0.01758,0.38477 a 0.97598757,0.97598757 0 0 0 -0.402344,-0.38477 z m -12.148438,2.34375 0.0625,0.0625 c -0.01421,0.002 -0.04624,0.0293 -0.05664,0.0293 -0.01129,0 -0.04803,-0.0326 -0.06445,-0.0352 z m 7.845704,4.35938 a 0.97598757,0.97598757 0 0 0 0.427734,0.41796 h -0.417969 z" />
    <rect
       style="fill:#000000;fill-rule:evenodd;stroke-width:0.264583"
       id="rect4"
       width="1.5871282"
       height="1.1040891"
       x="45.448055"
       y="127.67276"
       ry="0.55204457" />
    <rect
       style="fill:#000000;fill-rule:evenodd;stroke-width:0.264583"
       id="rect5"
       width="1.0580854"
       height="0.94307619"
       x="50.209442"
       y="121.27824"
       ry="0.4715381" />
    <rect
       style="fill:#000000;fill-rule:evenodd;stroke-width:0.264583"
       id="rect6"
       width="1.0120817"
       height="0.73605949"
       x="37.81144"
       y="123.37141"
       ry="0.36802974" />
    <rect
       style="fill:#000000;fill-rule:evenodd;stroke-width:0.264583"
       id="rect7"
       width="0.73605949"
       height="0.94307619"
       x="31.692947"
       y="121.27824"
       ry="0.36802974" />
    <path
       style="font-size:12.7px;line-height:1.25;font-family:sans-serif;fill:#000000;stroke-width:0.264583"
       sodipodi:type="inkscape:offset"
       inkscape:radius="0.97588998"
       inkscape:original="M 40.193359 119.63281 L 40.193359 128.16602 L 41.425781 128.16602 L 41.425781 119.63281 L 40.193359 119.63281 z M 41.871094 119.63281 L 41.871094 128.16602 L 43.101562 128.16602 L 43.101562 119.63281 L 41.871094 119.63281 z M 28.345703 119.73438 L 28.345703 128.16602 L 29.640625 128.16602 L 29.640625 119.73438 L 28.345703 119.73438 z M 53.757812 119.73438 L 54.708984 123.89844 L 53.71875 128.16602 L 55.015625 128.16602 L 55.498047 125.30859 L 55.548828 125.30859 L 56.03125 128.16602 L 57.337891 128.16602 L 56.373047 123.7207 L 57.300781 119.73438 L 56.042969 119.73438 L 55.574219 122.38867 L 55.523438 122.38867 L 55.052734 119.73438 L 53.757812 119.73438 z M 43.546875 120.14062 L 43.546875 121.26953 L 44.779297 121.26953 L 44.779297 120.14062 L 43.546875 120.14062 z M 33.527344 120.22852 L 33.527344 126.74414 C 33.527344 127.74744 33.995719 128.23047 35.011719 128.23047 C 36.015019 128.23047 36.345703 127.74744 36.345703 126.74414 L 36.345703 124.6875 L 35.291016 124.6875 L 35.291016 126.74414 C 35.291016 126.99814 35.203191 127.125 35.025391 127.125 C 34.834891 127.125 34.746094 126.99814 34.746094 126.74414 L 34.746094 123.02344 L 36.345703 123.02344 L 36.345703 121.91797 L 34.746094 121.91797 L 34.746094 120.22852 L 33.527344 120.22852 z M 32.142578 121.86719 C 31.786978 121.86719 31.494216 122.03304 31.291016 122.46484 L 31.240234 122.46484 L 31.214844 121.91797 L 30.058594 121.91797 L 30.058594 128.16602 L 31.291016 128.16602 L 31.291016 123.21289 C 31.341816 123.02239 31.443303 122.93359 31.595703 122.93359 C 31.760803 122.93359 31.849609 123.04875 31.849609 123.25195 L 31.849609 128.16602 L 33.09375 128.16602 L 33.09375 122.99805 C 33.09375 122.28685 32.701378 121.86719 32.142578 121.86719 z M 38.263672 121.86719 C 37.247672 121.86719 36.777344 122.35022 36.777344 123.35352 L 36.777344 126.74414 C 36.777344 127.74744 37.2467 128.23047 38.25 128.23047 C 39.266 128.23047 39.761719 127.73474 39.761719 126.74414 L 39.761719 126.05859 L 38.542969 126.05859 L 38.542969 126.76953 C 38.542969 127.02353 38.4405 127.15039 38.25 127.15039 C 38.0722 127.15039 37.970703 127.02353 37.970703 126.76953 L 37.970703 125.39844 L 39.761719 125.39844 L 39.761719 123.35352 C 39.761719 122.35022 39.266972 121.86719 38.263672 121.86719 z M 50.697266 121.86719 C 50.367066 121.86719 50.100656 122.03304 49.910156 122.46484 L 49.859375 122.46484 L 49.833984 121.91797 L 48.677734 121.91797 L 48.677734 128.16602 L 49.910156 128.16602 L 49.910156 123.21289 C 49.960956 123.02239 50.062444 122.93359 50.214844 122.93359 C 50.379944 122.93359 50.46875 123.04875 50.46875 123.25195 L 50.46875 128.16602 L 51.662109 128.16602 L 51.662109 123.21289 C 51.700209 123.02239 51.800725 122.93359 51.953125 122.93359 C 52.118225 122.93359 52.208984 123.04875 52.208984 123.25195 L 52.208984 128.16602 L 53.453125 128.16602 L 53.453125 122.99805 C 53.453125 122.31225 53.021691 121.86719 52.462891 121.86719 C 52.119991 121.86719 51.800866 122.04474 51.572266 122.52734 C 51.432566 122.10824 51.090966 121.86719 50.697266 121.86719 z M 43.546875 121.91797 L 43.546875 128.16602 L 44.779297 128.16602 L 44.779297 121.91797 L 43.546875 121.91797 z M 45.222656 121.91797 L 45.222656 126.71875 C 45.222656 127.58235 45.336609 128.23047 46.162109 128.23047 C 46.555809 128.23047 46.785072 128.07731 47.013672 127.63281 L 47.064453 127.63281 L 47.078125 128.16602 L 48.246094 128.16602 L 48.246094 121.91797 L 47.001953 121.91797 L 47.001953 126.71875 C 47.001953 127.04895 46.950275 127.16211 46.734375 127.16211 C 46.505775 127.16211 46.466797 127.04895 46.466797 126.71875 L 46.466797 121.91797 L 45.222656 121.91797 z M 38.263672 122.94727 C 38.454172 122.94727 38.542969 123.06144 38.542969 123.32812 L 38.542969 124.52148 L 37.970703 124.52148 L 37.970703 123.32812 C 37.970703 123.06144 38.073172 122.94727 38.263672 122.94727 z "
       xlink:href="#path2"
       id="path4"
       inkscape:href="#path2"
       d="m 40.193359,118.65625 a 0.97598757,0.97598757 0 0 0 -0.976562,0.97656 v 1.59961 c -0.324019,-0.1146 -0.606546,-0.34179 -0.953125,-0.34179 -0.52742,-1e-5 -1.007,0.23529 -1.445313,0.52343 a 0.97598757,0.97598757 0 0 0 -0.472656,-0.47265 h -0.623047 v -0.71289 a 0.97598757,0.97598757 0 0 0 -0.976562,-0.97657 h -1.21875 a 0.97598757,0.97598757 0 0 0 -0.976563,0.97657 v 0.8457 c -0.149089,-0.0366 -0.257746,-0.18359 -0.408203,-0.18359 -0.241024,0 -0.487216,0.12483 -0.728516,0.24023 a 0.97598757,0.97598757 0 0 0 -0.199218,-0.18945 h -0.597657 v -1.20703 a 0.97598757,0.97598757 0 0 0 -0.976562,-0.97657 h -1.294922 a 0.97598757,0.97598757 0 0 0 -0.976562,0.97657 v 8.43164 a 0.97598757,0.97598757 0 0 0 0.976562,0.97656 h 1.294922 a 0.97598757,0.97598757 0 0 0 0.208984,-0.20899 0.97598757,0.97598757 0 0 0 0.208985,0.20899 h 1.232422 a 0.97598757,0.97598757 0 0 0 0.279296,-0.2793 0.97598757,0.97598757 0 0 0 0.279297,0.2793 h 1.244141 a 0.97598757,0.97598757 0 0 0 0.460937,-0.46094 c 0.439968,0.29338 0.925603,0.52539 1.457032,0.52539 0.569253,0 1.113027,-0.24251 1.546875,-0.61719 0.469181,0.41662 1.075018,0.61719 1.691406,0.61719 0.540362,0 1.032284,-0.23326 1.476562,-0.53125 a 0.97598757,0.97598757 0 0 0 0.466797,0.4668 h 1.232422 a 0.97598757,0.97598757 0 0 0 0.222656,-0.22266 0.97598757,0.97598757 0 0 0 0.222657,0.22266 h 1.230468 a 0.97598757,0.97598757 0 0 0 0.222657,-0.22266 0.97598757,0.97598757 0 0 0 0.222656,0.22266 h 1.232422 a 0.97598757,0.97598757 0 0 0 0.314453,-0.31446 c 0.320321,0.21979 0.690436,0.37891 1.068359,0.37891 0.233843,0 0.500675,-0.11217 0.75586,-0.2207 a 0.97598757,0.97598757 0 0 0 0.160156,0.15625 h 1.167969 a 0.97598757,0.97598757 0 0 0 0.214843,-0.2168 0.97598757,0.97598757 0 0 0 0.216797,0.2168 h 1.232422 a 0.97598757,0.97598757 0 0 0 0.279297,-0.2793 0.97598757,0.97598757 0 0 0 0.279297,0.2793 h 1.193359 a 0.97598757,0.97598757 0 0 0 0.273438,-0.27344 0.97598757,0.97598757 0 0 0 0.273437,0.27344 h 1.244141 a 0.97598757,0.97598757 0 0 0 0.08594,-0.0859 0.97598757,0.97598757 0 0 0 0.179688,0.0859 h 1.296875 a 0.97598757,0.97598757 0 0 0 0.507812,-0.42969 0.97598757,0.97598757 0 0 0 0.507813,0.42969 h 1.306641 a 0.97598757,0.97598757 0 0 0 0.953125,-1.1836 l -0.917969,-4.23046 0.878906,-3.77344 a 0.97598757,0.97598757 0 0 0 -0.951172,-1.19727 h -1.257812 a 0.97598757,0.97598757 0 0 0 -0.496094,0.41602 0.97598757,0.97598757 0 0 0 -0.494141,-0.41602 h -1.294922 a 0.97598757,0.97598757 0 0 0 -0.951171,1.19336 l 0.28125,1.22852 c -0.215535,-0.0921 -0.382385,-0.28907 -0.625,-0.28906 -0.298088,0 -0.603382,0.132 -0.888672,0.30078 -0.274135,-0.15556 -0.561607,-0.30078 -0.876953,-0.30078 -0.224856,0 -0.447937,0.12919 -0.669922,0.23632 a 0.97598757,0.97598757 0 0 0 -0.19336,-0.18554 h -1.15625 a 0.97598757,0.97598757 0 0 0 -0.216797,0.21484 0.97598757,0.97598757 0 0 0 -0.214843,-0.21484 h -1.244141 a 0.97598757,0.97598757 0 0 0 -0.267578,0.26757 0.97598757,0.97598757 0 0 0 -0.267578,-0.26757 h -0.710938 v -0.80078 a 0.97598757,0.97598757 0 0 0 -0.976562,-0.97657 h -1.169922 a 0.97598757,0.97598757 0 0 0 -0.507813,-0.50781 h -1.230468 a 0.97598757,0.97598757 0 0 0 -0.222657,0.22266 0.97598757,0.97598757 0 0 0 -0.222656,-0.22266 z m -8.40625,2.83203 h 0.384766 l 0.01758,0.38477 a 0.97598757,0.97598757 0 0 0 -0.402344,-0.38477 z m 18.619141,0 h 0.384766 l 0.01758,0.38477 a 0.97598757,0.97598757 0 0 0 -0.402344,-0.38477 z m -12.148438,2.34375 0.0625,0.0625 c -0.01421,0.002 -0.04624,0.0293 -0.05664,0.0293 -0.01129,0 -0.04803,-0.0326 -0.06445,-0.0352 z m 7.845704,4.35938 a 0.97598757,0.97598757 0 0 0 0.427734,0.41796 h -0.417969 z" />
    <path
       style="font-size:12.7px;line-height:1.25;font-family:sans-serif;fill:#80ffb3;stroke-width:0.264583"
       sodipodi:type="inkscape:offset"
       inkscape:radius="0"
       inkscape:original="M 40.193359 119.63281 L 40.193359 128.16602 L 41.425781 128.16602 L 41.425781 119.63281 L 40.193359 119.63281 z M 41.871094 119.63281 L 41.871094 128.16602 L 43.101562 128.16602 L 43.101562 119.63281 L 41.871094 119.63281 z M 28.345703 119.73438 L 28.345703 128.16602 L 29.640625 128.16602 L 29.640625 119.73438 L 28.345703 119.73438 z M 53.757812 119.73438 L 54.708984 123.89844 L 53.71875 128.16602 L 55.015625 128.16602 L 55.498047 125.30859 L 55.548828 125.30859 L 56.03125 128.16602 L 57.337891 128.16602 L 56.373047 123.7207 L 57.300781 119.73438 L 56.042969 119.73438 L 55.574219 122.38867 L 55.523438 122.38867 L 55.052734 119.73438 L 53.757812 119.73438 z M 43.546875 120.14062 L 43.546875 121.26953 L 44.779297 121.26953 L 44.779297 120.14062 L 43.546875 120.14062 z M 33.527344 120.22852 L 33.527344 126.74414 C 33.527344 127.74744 33.995719 128.23047 35.011719 128.23047 C 36.015019 128.23047 36.345703 127.74744 36.345703 126.74414 L 36.345703 124.6875 L 35.291016 124.6875 L 35.291016 126.74414 C 35.291016 126.99814 35.203191 127.125 35.025391 127.125 C 34.834891 127.125 34.746094 126.99814 34.746094 126.74414 L 34.746094 123.02344 L 36.345703 123.02344 L 36.345703 121.91797 L 34.746094 121.91797 L 34.746094 120.22852 L 33.527344 120.22852 z M 32.142578 121.86719 C 31.786978 121.86719 31.494216 122.03304 31.291016 122.46484 L 31.240234 122.46484 L 31.214844 121.91797 L 30.058594 121.91797 L 30.058594 128.16602 L 31.291016 128.16602 L 31.291016 123.21289 C 31.341816 123.02239 31.443303 122.93359 31.595703 122.93359 C 31.760803 122.93359 31.849609 123.04875 31.849609 123.25195 L 31.849609 128.16602 L 33.09375 128.16602 L 33.09375 122.99805 C 33.09375 122.28685 32.701378 121.86719 32.142578 121.86719 z M 38.263672 121.86719 C 37.247672 121.86719 36.777344 122.35022 36.777344 123.35352 L 36.777344 126.74414 C 36.777344 127.74744 37.2467 128.23047 38.25 128.23047 C 39.266 128.23047 39.761719 127.73474 39.761719 126.74414 L 39.761719 126.05859 L 38.542969 126.05859 L 38.542969 126.76953 C 38.542969 127.02353 38.4405 127.15039 38.25 127.15039 C 38.0722 127.15039 37.970703 127.02353 37.970703 126.76953 L 37.970703 125.39844 L 39.761719 125.39844 L 39.761719 123.35352 C 39.761719 122.35022 39.266972 121.86719 38.263672 121.86719 z M 50.697266 121.86719 C 50.367066 121.86719 50.100656 122.03304 49.910156 122.46484 L 49.859375 122.46484 L 49.833984 121.91797 L 48.677734 121.91797 L 48.677734 128.16602 L 49.910156 128.16602 L 49.910156 123.21289 C 49.960956 123.02239 50.062444 122.93359 50.214844 122.93359 C 50.379944 122.93359 50.46875 123.04875 50.46875 123.25195 L 50.46875 128.16602 L 51.662109 128.16602 L 51.662109 123.21289 C 51.700209 123.02239 51.800725 122.93359 51.953125 122.93359 C 52.118225 122.93359 52.208984 123.04875 52.208984 123.25195 L 52.208984 128.16602 L 53.453125 128.16602 L 53.453125 122.99805 C 53.453125 122.31225 53.021691 121.86719 52.462891 121.86719 C 52.119991 121.86719 51.800866 122.04474 51.572266 122.52734 C 51.432566 122.10824 51.090966 121.86719 50.697266 121.86719 z M 43.546875 121.91797 L 43.546875 128.16602 L 44.779297 128.16602 L 44.779297 121.91797 L 43.546875 121.91797 z M 45.222656 121.91797 L 45.222656 126.71875 C 45.222656 127.58235 45.336609 128.23047 46.162109 128.23047 C 46.555809 128.23047 46.785072 128.07731 47.013672 127.63281 L 47.064453 127.63281 L 47.078125 128.16602 L 48.246094 128.16602 L 48.246094 121.91797 L 47.001953 121.91797 L 47.001953 126.71875 C 47.001953 127.04895 46.950275 127.16211 46.734375 127.16211 C 46.505775 127.16211 46.466797 127.04895 46.466797 126.71875 L 46.466797 121.91797 L 45.222656 121.91797 z M 38.263672 122.94727 C 38.454172 122.94727 38.542969 123.06143 38.542969 123.32812 L 38.542969 124.52148 L 37.970703 124.52148 L 37.970703 123.32812 C 37.970703 123.06143 38.073172 122.94727 38.263672 122.94727 z "
       xlink:href="#text2"
       id="path2"
       inkscape:href="#text2"
       d="m 40.193359,119.63281 v 8.53321 h 1.232422 v -8.53321 z m 1.677735,0 v 8.53321 h 1.230468 v -8.53321 z m -13.525391,0.10157 v 8.43164 h 1.294922 v -8.43164 z m 25.412109,0 0.951172,4.16406 -0.990234,4.26758 h 1.296875 l 0.482422,-2.85743 h 0.05078 l 0.482422,2.85743 h 1.306641 l -0.964844,-4.44532 0.927734,-3.98632 h -1.257812 l -0.46875,2.65429 h -0.05078 l -0.470704,-2.65429 z m -10.210937,0.40624 v 1.12891 h 1.232422 v -1.12891 z m -10.019531,0.0879 v 6.51562 c 0,1.0033 0.468375,1.48633 1.484375,1.48633 1.0033,0 1.333984,-0.48303 1.333984,-1.48633 v -2.05664 h -1.054687 v 2.05664 c 0,0.254 -0.08783,0.38086 -0.265625,0.38086 -0.1905,0 -0.279297,-0.12686 -0.279297,-0.38086 v -3.7207 h 1.599609 v -1.10547 h -1.599609 v -1.68945 z m -1.384766,1.63867 c -0.3556,0 -0.648362,0.16585 -0.851562,0.59765 h -0.05078 l -0.02539,-0.54687 h -1.15625 v 6.24805 h 1.232422 v -4.95313 c 0.0508,-0.1905 0.152287,-0.2793 0.304687,-0.2793 0.1651,0 0.253906,0.11516 0.253906,0.31836 v 4.91407 h 1.244141 v -5.16797 c 0,-0.7112 -0.392372,-1.13086 -0.951172,-1.13086 z m 6.121094,0 c -1.016,0 -1.486328,0.48303 -1.486328,1.48633 v 3.39062 c 0,1.0033 0.469356,1.48633 1.472656,1.48633 1.016,0 1.511719,-0.49573 1.511719,-1.48633 v -0.68555 h -1.21875 v 0.71094 c 0,0.254 -0.102469,0.38086 -0.292969,0.38086 -0.1778,0 -0.279297,-0.12686 -0.279297,-0.38086 v -1.37109 h 1.791016 v -2.04492 c 0,-1.0033 -0.494747,-1.48633 -1.498047,-1.48633 z m 12.433594,0 c -0.3302,0 -0.59661,0.16585 -0.78711,0.59765 h -0.05078 l -0.02539,-0.54687 h -1.15625 v 6.24805 h 1.232422 v -4.95313 c 0.0508,-0.1905 0.152288,-0.2793 0.304688,-0.2793 0.1651,0 0.253906,0.11516 0.253906,0.31836 v 4.91407 h 1.193359 v -4.95313 c 0.0381,-0.1905 0.138616,-0.2793 0.291016,-0.2793 0.1651,0 0.255859,0.11516 0.255859,0.31836 v 4.91407 h 1.244141 v -5.16797 c 0,-0.6858 -0.431434,-1.13086 -0.990234,-1.13086 -0.3429,0 -0.662025,0.17755 -0.890625,0.66015 -0.1397,-0.4191 -0.4813,-0.66015 -0.875,-0.66015 z m -7.150391,0.0508 v 6.24805 h 1.232422 v -6.24805 z m 1.675781,0 v 4.80078 c 0,0.8636 0.113953,1.51172 0.939453,1.51172 0.3937,0 0.622963,-0.15316 0.851563,-0.59766 h 0.05078 l 0.01367,0.53321 h 1.167969 v -6.24805 h -1.244141 v 4.80078 c 0,0.3302 -0.05168,0.44336 -0.267578,0.44336 -0.2286,0 -0.267578,-0.11316 -0.267578,-0.44336 v -4.80078 z m -6.958984,1.0293 c 0.1905,0 0.279297,0.11416 0.279297,0.38085 v 1.19336 h -0.572266 v -1.19336 c 0,-0.26669 0.102469,-0.38085 0.292969,-0.38085 z" />
    <text
       xml:space="preserve"
       style="font-size:12.7px;line-height:1.25;font-family:sans-serif;stroke-width:0.264583"
       x="28.154276"
       y="128.16635"
       id="text1"><tspan
         sodipodi:role="line"
         id="tspan1"
         style="font-style:normal;font-variant:normal;font-weight:900;font-stretch:extra-condensed;font-family:Coolvetica;-inkscape-font-specification:'Coolvetica Heavy Extra-Condensed';stroke-width:0.264583"
         x="28.154276"
         y="128.16635">IntelliumX</tspan></text>
    <text
       xml:space="preserve"
       style="font-size:12.7px;line-height:1.25;font-family:sans-serif;fill:#2a7fff;stroke-width:0.264583"
       x="28.154276"
       y="128.16635"
       id="text2"><tspan
         sodipodi:role="line"
         id="tspan2"
         style="font-style:normal;font-variant:normal;font-weight:900;font-stretch:extra-condensed;font-family:Coolvetica;-inkscape-font-specification:'Coolvetica Heavy Extra-Condensed';fill:#2a7fff;stroke-width:0.264583"
         x="28.154276"
         y="128.16635">IntelliumX</tspan></text>
    <path
       style="font-size:12.7px;line-height:1.25;font-family:sans-serif;fill:#37abc8;stroke-width:0.264583"
       sodipodi:type="inkscape:offset"
       inkscape:radius="0"
       inkscape:original="M 40.193359 119.63281 L 40.193359 128.16602 L 41.425781 128.16602 L 41.425781 119.63281 L 40.193359 119.63281 z M 41.871094 119.63281 L 41.871094 128.16602 L 43.101562 128.16602 L 43.101562 119.63281 L 41.871094 119.63281 z M 28.345703 119.73438 L 28.345703 128.16602 L 29.640625 128.16602 L 29.640625 119.73438 L 28.345703 119.73438 z M 53.757812 119.73438 L 54.708984 123.89844 L 53.71875 128.16602 L 55.015625 128.16602 L 55.498047 125.30859 L 55.548828 125.30859 L 56.03125 128.16602 L 57.337891 128.16602 L 56.373047 123.7207 L 57.300781 119.73438 L 56.042969 119.73438 L 55.574219 122.38867 L 55.523438 122.38867 L 55.052734 119.73438 L 53.757812 119.73438 z M 43.546875 120.14062 L 43.546875 121.26953 L 44.779297 121.26953 L 44.779297 120.14062 L 43.546875 120.14062 z M 33.527344 120.22852 L 33.527344 126.74414 C 33.527344 127.74744 33.995719 128.23047 35.011719 128.23047 C 36.015019 128.23047 36.345703 127.74744 36.345703 126.74414 L 36.345703 124.6875 L 35.291016 124.6875 L 35.291016 126.74414 C 35.291016 126.99814 35.203191 127.125 35.025391 127.125 C 34.834891 127.125 34.746094 126.99814 34.746094 126.74414 L 34.746094 123.02344 L 36.345703 123.02344 L 36.345703 121.91797 L 34.746094 121.91797 L 34.746094 120.22852 L 33.527344 120.22852 z M 32.142578 121.86719 C 31.786978 121.86719 31.494216 122.03304 31.291016 122.46484 L 31.240234 122.46484 L 31.214844 121.91797 L 30.058594 121.91797 L 30.058594 128.16602 L 31.291016 128.16602 L 31.291016 123.21289 C 31.341816 123.02239 31.443303 122.93359 31.595703 122.93359 C 31.760803 122.93359 31.849609 123.04875 31.849609 123.25195 L 31.849609 128.16602 L 33.09375 128.16602 L 33.09375 122.99805 C 33.09375 122.28685 32.701378 121.86719 32.142578 121.86719 z M 38.263672 121.86719 C 37.247672 121.86719 36.777344 122.35022 36.777344 123.35352 L 36.777344 126.74414 C 36.777344 127.74744 37.2467 128.23047 38.25 128.23047 C 39.266 128.23047 39.761719 127.73474 39.761719 126.74414 L 39.761719 126.05859 L 38.542969 126.05859 L 38.542969 126.76953 C 38.542969 127.02353 38.4405 127.15039 38.25 127.15039 C 38.0722 127.15039 37.970703 127.02353 37.970703 126.76953 L 37.970703 125.39844 L 39.761719 125.39844 L 39.761719 123.35352 C 39.761719 122.35022 39.266972 121.86719 38.263672 121.86719 z M 50.697266 121.86719 C 50.367066 121.86719 50.100656 122.03304 49.910156 122.46484 L 49.859375 122.46484 L 49.833984 121.91797 L 48.677734 121.91797 L 48.677734 128.16602 L 49.910156 128.16602 L 49.910156 123.21289 C 49.960956 123.02239 50.062444 122.93359 50.214844 122.93359 C 50.379944 122.93359 50.46875 123.04875 50.46875 123.25195 L 50.46875 128.16602 L 51.662109 128.16602 L 51.662109 123.21289 C 51.700209 123.02239 51.800725 122.93359 51.953125 122.93359 C 52.118225 122.93359 52.208984 123.04875 52.208984 123.25195 L 52.208984 128.16602 L 53.453125 128.16602 L 53.453125 122.99805 C 53.453125 122.31225 53.021691 121.86719 52.462891 121.86719 C 52.119991 121.86719 51.800866 122.04474 51.572266 122.52734 C 51.432566 122.10824 51.090966 121.86719 50.697266 121.86719 z M 43.546875 121.91797 L 43.546875 128.16602 L 44.779297 128.16602 L 44.779297 121.91797 L 43.546875 121.91797 z M 45.222656 121.91797 L 45.222656 126.71875 C 45.222656 127.58235 45.336609 128.23047 46.162109 128.23047 C 46.555809 128.23047 46.785072 128.07731 47.013672 127.63281 L 47.064453 127.63281 L 47.078125 128.16602 L 48.246094 128.16602 L 48.246094 121.91797 L 47.001953 121.91797 L 47.001953 126.71875 C 47.001953 127.04895 46.950275 127.16211 46.734375 127.16211 C 46.505775 127.16211 46.466797 127.04895 46.466797 126.71875 L 46.466797 121.91797 L 45.222656 121.91797 z M 38.263672 122.94727 C 38.454172 122.94727 38.542969 123.06144 38.542969 123.32812 L 38.542969 124.52148 L 37.970703 124.52148 L 37.970703 123.32812 C 37.970703 123.06144 38.073172 122.94727 38.263672 122.94727 z "
       xlink:href="#path2"
       id="path3"
       inkscape:href="#path2"
       d="m 40.193359,119.63281 v 8.53321 h 1.232422 v -8.53321 z m 1.677735,0 v 8.53321 h 1.230468 v -8.53321 z m -13.525391,0.10157 v 8.43164 h 1.294922 v -8.43164 z m 25.412109,0 0.951172,4.16406 -0.990234,4.26758 h 1.296875 l 0.482422,-2.85743 h 0.05078 l 0.482422,2.85743 h 1.306641 l -0.964844,-4.44532 0.927734,-3.98632 h -1.257812 l -0.46875,2.65429 h -0.05078 l -0.470704,-2.65429 z m -10.210937,0.40624 v 1.12891 h 1.232422 v -1.12891 z m -10.019531,0.0879 v 6.51562 c 0,1.0033 0.468375,1.48633 1.484375,1.48633 1.0033,0 1.333984,-0.48303 1.333984,-1.48633 v -2.05664 h -1.054687 v 2.05664 c 0,0.254 -0.08783,0.38086 -0.265625,0.38086 -0.1905,0 -0.279297,-0.12686 -0.279297,-0.38086 v -3.7207 h 1.599609 v -1.10547 h -1.599609 v -1.68945 z m -1.384766,1.63867 c -0.3556,0 -0.648362,0.16585 -0.851562,0.59765 h -0.05078 l -0.02539,-0.54687 h -1.15625 v 6.24805 h 1.232422 v -4.95313 c 0.0508,-0.1905 0.152287,-0.2793 0.304687,-0.2793 0.1651,0 0.253906,0.11516 0.253906,0.31836 v 4.91407 h 1.244141 v -5.16797 c 0,-0.7112 -0.392372,-1.13086 -0.951172,-1.13086 z m 6.121094,0 c -1.016,0 -1.486328,0.48303 -1.486328,1.48633 v 3.39062 c 0,1.0033 0.469356,1.48633 1.472656,1.48633 1.016,0 1.511719,-0.49573 1.511719,-1.48633 v -0.68555 h -1.21875 v 0.71094 c 0,0.254 -0.102469,0.38086 -0.292969,0.38086 -0.1778,0 -0.279297,-0.12686 -0.279297,-0.38086 v -1.37109 h 1.791016 v -2.04492 c 0,-1.0033 -0.494747,-1.48633 -1.498047,-1.48633 z m 12.433594,0 c -0.3302,0 -0.59661,0.16585 -0.78711,0.59765 h -0.05078 l -0.02539,-0.54687 h -1.15625 v 6.24805 h 1.232422 v -4.95313 c 0.0508,-0.1905 0.152288,-0.2793 0.304688,-0.2793 0.1651,0 0.253906,0.11516 0.253906,0.31836 v 4.91407 h 1.193359 v -4.95313 c 0.0381,-0.1905 0.138616,-0.2793 0.291016,-0.2793 0.1651,0 0.255859,0.11516 0.255859,0.31836 v 4.91407 h 1.244141 v -5.16797 c 0,-0.6858 -0.431434,-1.13086 -0.990234,-1.13086 -0.3429,0 -0.662025,0.17755 -0.890625,0.66015 -0.1397,-0.4191 -0.4813,-0.66015 -0.875,-0.66015 z m -7.150391,0.0508 v 6.24805 h 1.232422 v -6.24805 z m 1.675781,0 v 4.80078 c 0,0.8636 0.113953,1.51172 0.939453,1.51172 0.3937,0 0.622963,-0.15316 0.851563,-0.59766 h 0.05078 l 0.01367,0.53321 h 1.167969 v -6.24805 h -1.244141 v 4.80078 c 0,0.3302 -0.05168,0.44336 -0.267578,0.44336 -0.2286,0 -0.267578,-0.11316 -0.267578,-0.44336 v -4.80078 z m -6.958984,1.0293 c 0.1905,0 0.279297,0.11417 0.279297,0.38085 v 1.19336 h -0.572266 v -1.19336 c 0,-0.26668 0.102469,-0.38085 0.292969,-0.38085 z" />
  </g>
</svg>
