<svg xmlns="http://www.w3.org/2000/svg" viewBox="0 0 64 64" fill="none">
  <path d="M32 22c-5.5 0-10 4.5-10 10s4.5 10 10 10 10-4.5 10-10-4.5-10-10-10zm0 16c-3.3 0-6-2.7-6-6s2.7-6 6-6 6 2.7 6 6-2.7 6-6 6z" fill="white"/>
  <path d="M50 28h-3.2c-.3-1.1-.7-2.1-1.3-3.1l2.3-2.3c.8-.8.8-2 0-2.8l-2.8-2.8c-.8-.8-2-.8-2.8 0l-2.3 2.3c-1-.6-2-1-3.1-1.3V14c0-1.1-.9-2-2-2h-4c-1.1 0-2 .9-2 2v3.2c-1.1.3-2.1.7-3.1 1.3l-2.3-2.3c-.8-.8-2-.8-2.8 0l-2.8 2.8c-.8.8-.8 2 0 2.8l2.3 2.3c-.6 1-1 2-1.3 3.1H14c-1.1 0-2 .9-2 2v4c0 1.1.9 2 2 2h3.2c.3 1.1.7 2.1 1.3 3.1l-2.3 2.3c-.8.8-.8 2 0 2.8l2.8 2.8c.8.8 2 .8 2.8 0l2.3-2.3c1 .6 2 1 3.1 1.3V50c0 1.1.9 2 2 2h4c1.1 0 2-.9 2-2v-3.2c1.1-.3 2.1-.7 3.1-1.3l2.3 2.3c.8.8 2 .8 2.8 0l2.8-2.8c.8-.8.8-2 0-2.8l-2.3-2.3c.6-1 1-2 1.3-3.1H50c1.1 0 2-.9 2-2v-4c0-1.1-.9-2-2-2z" fill="white"/>
</svg>
