<svg xmlns="http://www.w3.org/2000/svg" viewBox="0 0 64 64" fill="none">
  <circle cx="32" cy="28" r="8" fill="white" stroke="white" stroke-width="2"/>
  <path d="M32 14v4M32 42v4M46 28h4M14 28h4M42.8 19.2l2.8-2.8M18.4 43.6l2.8-2.8M42.8 36.8l2.8 2.8M18.4 12.4l2.8 2.8" stroke="white" stroke-width="2" stroke-linecap="round"/>
  <path d="M26 38c0 2 1 4 3 5v3c0 1.1.9 2 2 2h2c1.1 0 2-.9 2-2v-3c2-1 3-3 3-5" fill="white" stroke="white" stroke-width="2" stroke-linecap="round" stroke-linejoin="round"/>
</svg>
