<?xml version="1.0" encoding="UTF-8" standalone="no"?>
<!DOCTYPE svg PUBLIC "-//W3C//DTD SVG 1.1//EN" "http://www.w3.org/Graphics/SVG/1.1/DTD/svg11.dtd">
<svg width="100%" height="100%" viewBox="0 0 900 199" version="1.1" xmlns="http://www.w3.org/2000/svg" xmlns:xlink="http://www.w3.org/1999/xlink" xml:space="preserve" xmlns:serif="http://www.serif.com/" style="fill-rule:evenodd;clip-rule:evenodd;stroke-linejoin:round;stroke-miterlimit:2;">
    <g transform="matrix(1,0,0,1,-1395.916663,-696.971132)">
        <g id="Off-White-and-Light-Gray" serif:id="Off White and Light Gray">
        </g>
        <g>
            <g transform="matrix(1,0,0,1,907.5,-211.925)">
                <path d="M551.217,942.475C565.017,942.475 570.617,949.875 570.617,960.275C570.617,970.475 565.017,977.875 550.217,977.875L515.417,977.875L515.417,942.475L551.217,942.475ZM593.017,1052.275L593.017,1014.675C593.017,999.075 588.617,992.475 576.817,988.675C589.617,984.075 596.617,972.075 596.617,957.875C596.617,935.875 580.417,919.475 555.817,919.475L488.417,919.475L488.417,1052.275L515.417,1052.275L515.417,1000.275L545.017,1000.275C561.017,1000.275 565.817,1005.275 565.817,1018.075L565.817,1052.275L593.017,1052.275Z" style="fill:rgb(53,57,53);"/>
                <path d="M629.217,993.475C630.217,979.875 638.817,971.875 649.217,971.875C659.417,971.875 669.017,978.875 669.417,993.475L629.217,993.475ZM696.217,1009.875C696.217,970.875 680.217,951.275 650.017,951.275C619.817,951.275 602.417,970.875 602.417,1001.275C602.417,1036.875 618.817,1054.875 651.617,1054.875C672.617,1054.875 688.817,1043.475 694.817,1023.275L668.017,1023.275C666.217,1030.075 658.817,1034.275 650.417,1034.275C637.617,1034.275 629.217,1024.675 628.417,1009.875L696.217,1009.875Z" style="fill:rgb(53,57,53);"/>
                <path d="M733.217,1052.275L733.217,972.275L750.017,972.275L750.017,953.875L733.217,953.875C733.217,942.475 736.217,938.875 749.417,938.875L749.417,917.875C721.417,917.875 707.617,929.875 707.617,953.875L693.017,953.875L693.017,972.275L707.617,972.275L707.617,1052.275L733.217,1052.275Z" style="fill:rgb(53,57,53);"/>
                <path d="M819.017,1055.275C819.017,1068.275 810.417,1076.475 801.017,1076.475C787.417,1076.475 780.617,1069.275 780.617,1057.675L756.417,1057.675C756.417,1083.075 771.017,1098.875 799.817,1098.875C825.017,1098.875 845.017,1082.675 845.017,1054.875L845.017,953.875L819.017,953.875L819.017,1013.875C819.017,1024.475 810.817,1032.275 799.017,1032.275C788.017,1032.275 782.417,1026.075 782.417,1013.875L782.417,953.875L756.417,953.875L756.417,1017.675C756.417,1039.275 771.817,1053.275 792.417,1053.275C804.617,1053.275 815.417,1048.075 819.017,1039.275L819.017,1055.275Z" style="fill:rgb(53,57,53);"/>
                <path d="M946.017,1052.275L946.017,984.075C946.017,962.675 932.217,951.275 913.417,951.275C897.617,951.275 887.617,957.275 881.617,968.275L881.617,953.875L856.817,953.875L856.817,1052.275L882.817,1052.275L882.817,995.875C882.817,980.875 889.417,973.275 903.017,973.275C915.417,973.275 919.817,977.475 919.817,992.675L919.817,1052.275L946.017,1052.275Z" style="fill:rgb(53,57,53);"/>
                <path d="M982.017,993.475C983.017,979.875 991.617,971.875 1002.017,971.875C1012.217,971.875 1021.817,978.875 1022.217,993.475L982.017,993.475ZM1049.017,1009.875C1049.017,970.875 1033.017,951.275 1002.817,951.275C972.617,951.275 955.217,970.875 955.217,1001.275C955.217,1036.875 971.617,1054.875 1004.417,1054.875C1025.417,1054.875 1041.617,1043.475 1047.617,1023.275L1020.817,1023.275C1019.017,1030.075 1011.617,1034.275 1003.217,1034.275C990.417,1034.275 982.017,1024.675 981.217,1009.875L1049.017,1009.875Z" style="fill:rgb(53,57,53);"/>
            </g>
            <g transform="matrix(1,0,0,1,1471.5,-179.054167)">
                <path d="M655.275,928.109C655.275,939.914 652.219,950.748 646.108,960.609C639.997,970.47 631.108,978.525 619.442,984.775C607.775,991.025 593.886,994.706 577.775,995.817L568.817,1046.025C565.344,1065.331 555.9,1074.984 540.483,1074.984C532.011,1074.984 524.199,1072.484 517.046,1067.484C509.893,1062.484 504.164,1054.845 499.858,1044.567C495.553,1034.289 493.4,1021.65 493.4,1006.65C493.4,978.456 497.949,954.532 507.046,934.879C516.143,915.227 528.365,900.504 543.712,890.713C559.06,880.921 575.969,876.025 594.442,876.025C607.497,876.025 618.574,878.317 627.671,882.9C636.768,887.484 643.643,893.699 648.296,901.546C652.949,909.393 655.275,918.248 655.275,928.109ZM581.525,974.359C609.997,970.748 624.233,955.956 624.233,929.984C624.233,920.817 621.212,913.352 615.171,907.588C609.129,901.824 599.789,898.942 587.15,898.942C572.844,898.942 560.379,903.456 549.754,912.484C539.129,921.511 530.935,934.046 525.171,950.088C519.407,966.129 516.525,984.428 516.525,1004.984C516.525,1013.595 517.393,1021.234 519.129,1027.9C520.865,1034.567 523.087,1039.741 525.796,1043.421C528.504,1047.102 531.108,1048.942 533.608,1048.942C537.081,1048.942 539.719,1044.15 541.525,1034.567L548.4,995.192C542.983,994.359 540.622,994.011 541.317,994.15C537.15,993.456 534.442,992.171 533.192,990.296C531.942,988.421 531.317,986.025 531.317,983.109C531.317,980.053 532.185,977.623 533.921,975.817C535.657,974.011 538.053,973.109 541.108,973.109C542.497,973.109 543.539,973.178 544.233,973.317C547.567,973.873 550.136,974.22 551.942,974.359C553.747,963.525 556.317,949.011 559.65,930.817C560.483,926.095 562.393,922.727 565.379,920.713C568.365,918.699 571.872,917.692 575.9,917.692C580.483,917.692 583.782,918.56 585.796,920.296C587.81,922.032 588.817,924.775 588.817,928.525C588.817,930.748 588.678,932.553 588.4,933.942L581.525,974.359Z" style="fill:rgb(54,69,79);"/>
                <path d="M663.817,1053.317C658.539,1053.317 654.824,1050.539 652.671,1044.984C650.518,1039.428 649.442,1030.539 649.442,1018.317C649.442,1000.261 652.011,983.109 657.15,966.859C658.4,962.831 660.449,959.879 663.296,958.004C666.143,956.129 670.136,955.192 675.275,955.192C678.053,955.192 679.997,955.539 681.108,956.234C682.219,956.928 682.775,958.248 682.775,960.192C682.775,962.414 681.733,967.414 679.65,975.192C678.261,980.748 677.15,985.609 676.317,989.775C675.483,993.942 674.789,999.081 674.233,1005.192C678.817,993.248 683.956,983.525 689.65,976.025C695.344,968.525 700.935,963.178 706.421,959.984C711.907,956.789 716.942,955.192 721.525,955.192C730.553,955.192 735.067,959.706 735.067,968.734C735.067,970.539 734.442,974.914 733.192,981.859C732.081,987.414 731.525,990.886 731.525,992.275C731.525,997.136 733.261,999.567 736.733,999.567C740.622,999.567 745.622,996.511 751.733,990.4C753.539,988.595 755.414,987.692 757.358,987.692C759.164,987.692 760.587,988.491 761.629,990.088C762.671,991.685 763.192,993.803 763.192,996.442C763.192,1001.581 761.803,1005.609 759.025,1008.525C755.136,1012.553 750.587,1015.991 745.379,1018.838C740.171,1021.685 734.65,1023.109 728.817,1023.109C721.456,1023.109 715.865,1021.234 712.046,1017.484C708.226,1013.734 706.317,1008.664 706.317,1002.275C706.317,1000.192 706.525,998.109 706.942,996.025C707.219,993.248 707.358,991.373 707.358,990.4C707.358,988.178 706.594,987.067 705.067,987.067C702.983,987.067 700.24,989.393 696.837,994.046C693.435,998.699 690.067,1004.845 686.733,1012.484C683.4,1020.123 680.692,1028.178 678.608,1036.65C677.081,1043.178 675.31,1047.588 673.296,1049.879C671.282,1052.171 668.122,1053.317 663.817,1053.317Z" style="fill:rgb(54,69,79);"/>
                <path d="M779.025,1053.317C770.831,1053.317 763.851,1051.268 758.087,1047.171C752.324,1043.074 747.983,1037.692 745.067,1031.025C742.15,1024.359 740.692,1017.206 740.692,1009.567C740.692,999.011 742.671,989.602 746.629,981.338C750.587,973.074 755.969,966.616 762.775,961.963C769.581,957.31 777.219,954.984 785.692,954.984C793.886,954.984 800.9,957.032 806.733,961.129C812.567,965.227 816.942,970.609 819.858,977.275C822.775,983.942 824.233,991.095 824.233,998.734C824.233,1009.289 822.219,1018.699 818.192,1026.963C814.164,1035.227 808.712,1041.685 801.837,1046.338C794.962,1050.991 787.358,1053.317 779.025,1053.317ZM781.317,1030.817C786.039,1030.817 790.032,1028.248 793.296,1023.109C796.56,1017.97 798.192,1010.47 798.192,1000.609C798.192,992.97 796.803,987.206 794.025,983.317C791.247,979.428 787.914,977.484 784.025,977.484C779.025,977.484 774.893,980.018 771.629,985.088C768.365,990.157 766.733,997.692 766.733,1007.692C766.733,1015.609 768.122,1021.442 770.9,1025.192C773.678,1028.942 777.15,1030.817 781.317,1030.817Z" style="fill:rgb(54,69,79);"/>
            </g>
        </g>
    </g>
</svg>
