<?xml version="1.0" encoding="UTF-8" standalone="no"?>
<!DOCTYPE svg PUBLIC "-//W3C//DTD SVG 1.1//EN" "http://www.w3.org/Graphics/SVG/1.1/DTD/svg11.dtd">
<svg width="100%" height="100%" viewBox="0 0 355 355" version="1.1" xmlns="http://www.w3.org/2000/svg" xmlns:xlink="http://www.w3.org/1999/xlink" xml:space="preserve" xmlns:serif="http://www.serif.com/" style="fill-rule:evenodd;clip-rule:evenodd;stroke-linejoin:round;stroke-miterlimit:2;">
    <g transform="matrix(1,0,0,1,-1513.240651,-938.904203)">
        <g id="Background" transform="matrix(1.564759,0,0,1.564759,1487.020835,899.203925)">
            <path d="M243.357,82.022L243.357,195.322C243.357,226.588 217.973,251.973 186.707,251.973L73.407,251.973C42.141,251.973 16.756,226.588 16.756,195.322L16.756,82.022C16.756,50.756 42.141,25.371 73.407,25.371L186.707,25.371C217.973,25.371 243.357,50.756 243.357,82.022Z" style="fill:rgb(0,88,142);"/>
        </g>
        <g id="Logo" transform="matrix(5.256231,0,0,5.256231,1210.710755,758.715097)">
            <path d="M113.736,77.885C114.169,77.885 114.511,78.085 114.761,78.485C115.011,78.885 115.136,79.435 115.136,80.135C115.136,81.435 114.819,82.469 114.186,83.235C112.586,85.169 110.969,86.66 109.336,87.71C107.702,88.76 105.769,89.285 103.536,89.285C101.369,89.285 99.527,88.702 98.011,87.535C96.494,86.369 95.052,84.369 93.686,81.535C92.586,79.269 91.719,77.594 91.086,76.51C90.452,75.427 89.827,74.652 89.211,74.185C88.594,73.719 87.836,73.435 86.936,73.335C86.802,74.035 86.419,76.235 85.786,79.935C85.519,81.602 85.352,82.619 85.286,82.985C84.952,85.019 84.286,86.577 83.286,87.66C82.286,88.744 80.769,89.285 78.736,89.285C76.502,89.285 74.527,88.627 72.811,87.31C71.094,85.994 69.769,84.16 68.836,81.81C67.902,79.46 67.436,76.785 67.436,73.785C67.436,68.185 68.411,63.352 70.361,59.285C72.311,55.219 75.044,52.11 78.561,49.96C82.077,47.81 86.136,46.735 90.736,46.735C93.936,46.735 96.619,47.219 98.786,48.185C100.952,49.152 102.561,50.485 103.611,52.185C104.661,53.885 105.186,55.802 105.186,57.935C105.186,59.802 104.744,61.627 103.861,63.41C102.977,65.194 101.652,66.769 99.886,68.135C98.119,69.502 95.969,70.519 93.436,71.185C95.036,71.619 96.269,72.319 97.136,73.285C98.002,74.252 98.869,75.669 99.736,77.535C100.669,79.535 101.594,81.002 102.511,81.935C103.427,82.869 104.486,83.335 105.686,83.335C106.752,83.335 107.769,82.977 108.736,82.26C109.702,81.544 110.919,80.319 112.386,78.585C112.786,78.119 113.236,77.885 113.736,77.885ZM80.036,73.285C78.902,73.285 78.127,73.019 77.711,72.485C77.294,71.952 77.086,71.352 77.086,70.685C77.086,69.885 77.344,69.252 77.861,68.785C78.377,68.319 78.969,68.085 79.636,68.085L80.886,68.085C81.419,64.819 81.919,62.002 82.386,59.635C82.819,57.469 84.219,56.385 86.586,56.385C88.486,56.385 89.436,57.235 89.436,58.935C89.436,59.302 89.419,59.585 89.386,59.785L87.886,68.085C89.686,67.985 91.327,67.552 92.811,66.785C94.294,66.019 95.477,64.952 96.361,63.585C97.244,62.219 97.686,60.669 97.686,58.935C97.686,56.835 96.969,55.185 95.536,53.985C94.102,52.785 92.002,52.185 89.236,52.185C85.969,52.185 83.111,52.994 80.661,54.61C78.211,56.227 76.302,58.627 74.936,61.81C73.569,64.994 72.886,68.869 72.886,73.435C72.886,75.569 73.102,77.402 73.536,78.935C73.969,80.469 74.502,81.619 75.136,82.385C75.769,83.152 76.369,83.535 76.936,83.535C77.369,83.535 77.727,83.319 78.011,82.885C78.294,82.452 78.519,81.752 78.686,80.785L80.036,73.285Z" style="fill:white;fill-rule:nonzero;"/>
        </g>
    </g>
</svg>
