<?xml version="1.0" encoding="UTF-8" standalone="no"?>
<!DOCTYPE svg PUBLIC "-//W3C//DTD SVG 1.1//EN" "http://www.w3.org/Graphics/SVG/1.1/DTD/svg11.dtd">
<svg width="100%" height="100%" viewBox="0 0 144 47" version="1.1" xmlns="http://www.w3.org/2000/svg" xmlns:xlink="http://www.w3.org/1999/xlink" xml:space="preserve" xmlns:serif="http://www.serif.com/" style="fill-rule:evenodd;clip-rule:evenodd;stroke-linejoin:round;stroke-miterlimit:2;">
    <g id="path4" transform="matrix(2.834646,0,0,2.834646,247.457373,-689.665436)">
        <path d="M-51.888,258.905C-52.945,258.824 -57.206,258.126 -57.798,258.079C-58.254,258.047 -59.038,257.711 -58.79,258.006C-58.757,258.046 -57.584,258.501 -57.46,258.526C-55.827,258.858 -50.829,259.515 -52.084,259.594C-52.853,259.57 -57.139,259.396 -57.829,259.321C-59.007,259.208 -60.251,258.989 -61.627,258.399C-62.018,258.221 -62.41,258.008 -62.805,257.76C-64.443,256.877 -66.263,255.547 -67.232,253.914C-70.219,248.876 -75.229,248.277 -76.213,248.423C-79.252,249.063 -79.39,249.349 -81.568,251.246C-83.248,252.672 -83.98,253.689 -83.98,253.689C-83.98,253.689 -86.152,256.659 -87.079,258.317C-86.988,257.658 -85.779,254.65 -84.378,252.574C-83.101,250.681 -81.251,248.976 -81.473,248.873C-82.263,248.845 -83.658,250.53 -82.868,249.439C-82.538,248.982 -80.011,247.079 -80.011,247.079C-80.41,247.084 -82.062,248.077 -82.809,248.647C-84.385,249.81 -85.46,251.228 -87.041,253.585C-87.175,253.545 -86.413,251.476 -86.239,251.093C-85.703,250.113 -85.187,249.283 -84.321,248.192C-83.908,247.77 -83.207,246.959 -82.634,246.561C-82.372,246.379 -82.149,246.226 -82.639,246.377L-82.822,246.508C-83.013,246.626 -85.423,248.118 -86.744,250.921C-86.566,249.86 -85.955,248.368 -85.093,247.054C-83.727,245.17 -81.33,244.188 -81.182,244.141C-78.647,243.323 -70.183,241.941 -65.704,246.992C-65.201,247.626 -62.902,251.094 -60.376,252.626C-59.61,253.091 -56.194,254.563 -51.904,253.246C-49.085,252.663 -45.891,251.621 -44.575,251.103C-43.345,250.556 -38.389,247.881 -37.516,247.558C-36.834,247.316 -41.051,249.701 -41.261,250.049C-41.844,251.01 -35.992,247.871 -37.723,249.131C-41.928,252.191 -46.035,252.858 -47.465,253.706C-47.48,253.715 -47.495,253.724 -47.51,253.733C-47.812,253.934 -44.085,253.162 -44.507,253.398C-44.917,253.628 -47.177,254.322 -48.234,254.854C-48.377,254.926 -49.982,255.811 -49.659,256.499C-49.2,257.12 -48.734,257.47 -47.537,257.801C-46.729,257.918 -38.767,257.714 -37.429,256.64C-38.561,257.858 -46.49,258.322 -47.771,258.127C-47.167,258.468 -42.764,258.347 -40.48,257.997C-39.112,257.787 -38.819,257.83 -39.15,257.981C-39.618,258.195 -41.338,258.625 -43.036,258.864C-46.045,259.188 -50.242,259.03 -51.888,258.905L-51.888,258.905Z" style="fill:white;fill-rule:nonzero;"/>
    </g>
</svg>
