<?xml version="1.0" encoding="UTF-8" standalone="no"?><!DOCTYPE svg PUBLIC "-//W3C//DTD SVG 1.1//EN" "http://www.w3.org/Graphics/SVG/1.1/DTD/svg11.dtd"><svg width="100%" height="100%" viewBox="0 0 256 256" version="1.1" xmlns="http://www.w3.org/2000/svg" xmlns:xlink="http://www.w3.org/1999/xlink" xml:space="preserve" xmlns:serif="http://www.serif.com/" style="fill-rule:evenodd;clip-rule:evenodd;stroke-linejoin:round;stroke-miterlimit:2;"><g><path d="M107.692,154.616c0,0 0.001,0 0.001,-0.001l-39.419,-49.339c-10.239,-13.3 -20.989,-27.029 -28.156,-31.32c-7.167,-5.577 -14.334,-5.577 -23.037,-6.006c-3.072,0 -4.095,-0.858 -4.095,-5.148c0,-4.29 1.024,-5.148 4.095,-5.148c17.406,0.858 31.228,1.287 46.586,1.287c16.382,0 38.907,-0.858 55.289,-1.287c3.584,0 4.607,0.858 4.607,4.719c0,4.29 -1.024,5.148 -4.607,5.148c-11.774,0.858 -19.453,1.287 -22.525,6.436c-3.072,5.148 2.048,11.584 12.286,24.455l26.621,33.894l8.703,9.868l46.074,57.062c11.263,13.3 20.477,26.171 29.18,32.178c8.191,6.006 15.87,6.436 24.573,6.865c3.072,0.429 4.095,1.287 4.095,4.719c0,4.29 -1.024,5.148 -4.095,5.148c-16.382,-0.429 -31.74,-1.287 -48.122,-1.287c-13.822,0 -38.395,0.858 -55.801,1.287c-2.56,0 -4.095,-0.858 -4.095,-4.719c0,-3.432 1.536,-4.719 4.095,-4.719c13.31,-0.858 20.989,-1.287 22.525,-7.294c1.024,-4.719 -3.584,-12.871 -12.798,-24.455l-32.764,-42.045c-0.005,0.008 -0.012,0.015 -0.017,0.023l-9.199,-10.318Z" style="fill:#52525c;stroke:#fff;stroke-width:26px;"/></g><g><g><path d="M101.35,116.929c-2.981,4.687 -5.137,8.13 -8.99,13.695l-22.461,30.668c-8.207,12.094 -7.343,17.71 -4.751,22.893c2.16,5.183 12.526,6.047 20.301,6.911c2.592,0.432 3.887,0.864 3.887,4.751c0,3.887 -1.296,4.751 -3.887,4.751c-11.662,-0.432 -27.86,-0.216 -39.523,-0.216c-11.662,0 -22.922,0.216 -33.908,0.216c-2.592,0 -3.456,-0.864 -3.456,-5.183c0,-3.456 0.864,-4.751 3.456,-4.751c8.207,-0.432 15.118,-3.456 20.733,-8.207c5.183,-3.887 10.799,-10.367 23.757,-26.78l25.485,-34.124c4.225,-5.378 6.744,-8.706 10.288,-13.328l24.647,-24.331l0.053,0.08l0.441,-0.567c2.72,-3.502 4.095,-5.328 8.198,-10.664l19.437,-26.78c7.343,-10.799 8.639,-15.118 6.911,-20.301c-1.728,-5.183 -9.935,-6.047 -19.006,-6.911c-3.024,0 -3.887,-0.432 -3.887,-4.751c0,-4.319 0.864,-5.183 3.887,-5.183c11.231,0 24.621,0.216 35.419,0.216c11.662,0 25.485,0.648 36.283,-0.216c2.592,0 3.024,0.864 3.024,5.183c0,4.319 -0.432,5.183 -3.024,5.183c-6.479,0.864 -15.55,2.592 -21.165,6.911c-8.207,4.751 -15.55,13.39 -25.053,25.917l-22.461,28.076c-5.183,6.479 -7.775,9.935 -11.662,13.822l0.018,0.028l-22.893,22.893l-0.018,-0.028c-0.027,0.043 -0.054,0.085 -0.081,0.127Z" style="fill:#ff9620;stroke:#fff;stroke-width:26px;"/></g><g><path d="M119.707,116.929c-2.981,4.687 -5.137,8.13 -8.99,13.695l-22.461,30.668c-8.207,12.094 -7.343,17.71 -4.751,22.893c2.16,5.183 12.526,6.047 20.301,6.911c2.592,0.432 3.887,0.864 3.887,4.751c0,3.887 -1.296,4.751 -3.887,4.751c-11.662,-0.432 -27.86,-0.216 -39.523,-0.216c-11.662,0 -22.677,-0.216 -33.908,0.216c-2.592,0 -3.456,-0.864 -3.456,-5.183c0,-3.456 0.864,-4.751 3.456,-4.751c8.207,-0.432 15.118,-3.456 20.733,-8.207c5.183,-3.887 10.799,-10.367 23.757,-26.78l25.485,-34.124c4.225,-5.378 6.744,-8.706 10.288,-13.328l24.647,-24.331l0.053,0.08l0.441,-0.567c2.72,-3.502 4.095,-5.328 8.198,-10.664l19.437,-26.78c7.343,-10.799 8.916,-15.792 6.911,-20.301c-2.02,-4.543 -9.935,-6.047 -19.006,-6.911c-3.024,0 -3.887,-0.432 -3.887,-4.751c0,-4.319 0.864,-5.183 3.887,-5.183c12.084,0 24.621,0.216 35.419,0.216c11.662,0 25.485,0.648 36.283,-0.216c2.592,0 3.024,0.864 3.024,5.183c0,4.319 -0.432,5.183 -3.024,5.183c-6.479,0.864 -15.55,2.592 -21.165,6.911c-8.207,4.751 -15.55,13.39 -25.053,25.917l-22.461,28.076c-5.183,6.479 -7.775,9.935 -11.662,13.822l0.018,0.028l-22.893,22.893l-0.018,-0.028c-0.027,0.043 -0.054,0.085 -0.081,0.127Z" style="fill:#ff2056;stroke:#fff;stroke-width:26px;"/></g><g><path d="M135.905,116.929c-2.981,4.687 -5.137,8.13 -8.99,13.695l-22.461,30.668c-8.207,12.094 -7.343,17.71 -4.751,22.893c2.16,5.183 12.526,6.047 20.301,6.911c2.592,0.432 3.887,0.864 3.887,4.751c0,3.887 -1.296,4.751 -3.887,4.751c-11.662,0 -26.731,-0.22 -38.443,-0.216c-11.613,0.005 -24.224,0.216 -34.987,0.216c-2.592,0 -3.456,-0.864 -3.456,-5.183c0,-3.456 0.864,-4.751 3.456,-4.751c8.207,-0.432 15.118,-3.456 20.733,-8.207c5.183,-3.887 10.799,-10.367 23.757,-26.78l25.485,-34.124c4.225,-5.378 6.744,-8.706 10.288,-13.328l24.647,-24.331l0.053,0.08l0.441,-0.567c2.72,-3.502 4.095,-5.328 8.198,-10.664l19.437,-26.78c7.343,-10.799 8.639,-15.118 6.911,-20.301c-1.728,-5.183 -9.935,-6.047 -19.006,-6.911c-3.024,0 -3.887,-0.432 -3.887,-4.751c0,-4.319 0.864,-5.183 3.887,-5.183c12.532,0 23.487,0.141 34.339,0.216c11.604,0.081 26.565,-0.216 37.363,-0.216c2.592,0 3.024,0.864 3.024,5.183c0,4.319 -0.432,5.183 -3.024,5.183c-6.479,0.864 -15.55,2.592 -21.165,6.911c-8.207,4.751 -15.55,13.39 -25.053,25.917l-22.461,28.076c-5.183,6.479 -7.775,9.935 -11.662,13.822l0.018,0.028l-22.893,22.893l-0.018,-0.028c-0.027,0.043 -0.054,0.085 -0.081,0.127Z" style="fill:#51a2ff;stroke:#fff;stroke-width:26px;"/></g></g><g><g><path d="M101.35,116.929c-2.981,4.687 -5.137,8.13 -8.99,13.695l-22.461,30.668c-8.207,12.094 -7.343,17.71 -4.751,22.893c2.16,5.183 12.526,6.047 20.301,6.911c2.592,0.432 3.887,0.864 3.887,4.751c0,3.887 -1.296,4.751 -3.887,4.751c-11.662,-0.432 -27.86,-0.216 -39.523,-0.216c-11.662,0 -22.922,0.216 -33.908,0.216c-2.592,0 -3.456,-0.864 -3.456,-5.183c0,-3.456 0.864,-4.751 3.456,-4.751c8.207,-0.432 15.118,-3.456 20.733,-8.207c5.183,-3.887 10.799,-10.367 23.757,-26.78l25.485,-34.124c4.225,-5.378 6.744,-8.706 10.288,-13.328l24.647,-24.331l0.053,0.08l0.441,-0.567c2.72,-3.502 4.095,-5.328 8.198,-10.664l19.437,-26.78c7.343,-10.799 8.639,-15.118 6.911,-20.301c-1.728,-5.183 -9.935,-6.047 -19.006,-6.911c-3.024,0 -3.887,-0.432 -3.887,-4.751c0,-4.319 0.864,-5.183 3.887,-5.183c11.231,0 24.621,0.216 35.419,0.216c11.662,0 25.485,0.648 36.283,-0.216c2.592,0 3.024,0.864 3.024,5.183c0,4.319 -0.432,5.183 -3.024,5.183c-6.479,0.864 -15.55,2.592 -21.165,6.911c-8.207,4.751 -15.55,13.39 -25.053,25.917l-22.461,28.076c-5.183,6.479 -7.775,9.935 -11.662,13.822l0.018,0.028l-22.893,22.893l-0.018,-0.028c-0.027,0.043 -0.054,0.085 -0.081,0.127Z" style="fill:#ff9620;stroke:#000001;stroke-width:2.08px;"/></g><g><path d="M119.707,116.929c-2.981,4.687 -5.137,8.13 -8.99,13.695l-22.461,30.668c-8.207,12.094 -7.343,17.71 -4.751,22.893c2.16,5.183 12.526,6.047 20.301,6.911c2.592,0.432 3.887,0.864 3.887,4.751c0,3.887 -1.296,4.751 -3.887,4.751c-11.662,-0.432 -27.86,-0.216 -39.523,-0.216c-11.662,0 -22.677,-0.216 -33.908,0.216c-2.592,0 -3.456,-0.864 -3.456,-5.183c0,-3.456 0.864,-4.751 3.456,-4.751c8.207,-0.432 15.118,-3.456 20.733,-8.207c5.183,-3.887 10.799,-10.367 23.757,-26.78l25.485,-34.124c4.225,-5.378 6.744,-8.706 10.288,-13.328l24.647,-24.331l0.053,0.08l0.441,-0.567c2.72,-3.502 4.095,-5.328 8.198,-10.664l19.437,-26.78c7.343,-10.799 8.916,-15.792 6.911,-20.301c-2.02,-4.543 -9.935,-6.047 -19.006,-6.911c-3.024,0 -3.887,-0.432 -3.887,-4.751c0,-4.319 0.864,-5.183 3.887,-5.183c12.084,0 24.621,0.216 35.419,0.216c11.662,0 25.485,0.648 36.283,-0.216c2.592,0 3.024,0.864 3.024,5.183c0,4.319 -0.432,5.183 -3.024,5.183c-6.479,0.864 -15.55,2.592 -21.165,6.911c-8.207,4.751 -15.55,13.39 -25.053,25.917l-22.461,28.076c-5.183,6.479 -7.775,9.935 -11.662,13.822l0.018,0.028l-22.893,22.893l-0.018,-0.028c-0.027,0.043 -0.054,0.085 -0.081,0.127Z" style="fill:#ff2056;stroke:#000001;stroke-width:2.08px;"/></g><g><path d="M135.905,116.929c-2.981,4.687 -5.137,8.13 -8.99,13.695l-22.461,30.668c-8.207,12.094 -7.343,17.71 -4.751,22.893c2.16,5.183 12.526,6.047 20.301,6.911c2.592,0.432 3.887,0.864 3.887,4.751c0,3.887 -1.296,4.751 -3.887,4.751c-11.662,0 -26.731,-0.22 -38.443,-0.216c-11.613,0.005 -24.224,0.216 -34.987,0.216c-2.592,0 -3.456,-0.864 -3.456,-5.183c0,-3.456 0.864,-4.751 3.456,-4.751c8.207,-0.432 15.118,-3.456 20.733,-8.207c5.183,-3.887 10.799,-10.367 23.757,-26.78l25.485,-34.124c4.225,-5.378 6.744,-8.706 10.288,-13.328l24.647,-24.331l0.053,0.08l0.441,-0.567c2.72,-3.502 4.095,-5.328 8.198,-10.664l19.437,-26.78c7.343,-10.799 8.639,-15.118 6.911,-20.301c-1.728,-5.183 -9.935,-6.047 -19.006,-6.911c-3.024,0 -3.887,-0.432 -3.887,-4.751c0,-4.319 0.864,-5.183 3.887,-5.183c12.532,0 23.487,0.141 34.339,0.216c11.604,0.081 26.565,-0.216 37.363,-0.216c2.592,0 3.024,0.864 3.024,5.183c0,4.319 -0.432,5.183 -3.024,5.183c-6.479,0.864 -15.55,2.592 -21.165,6.911c-8.207,4.751 -15.55,13.39 -25.053,25.917l-22.461,28.076c-5.183,6.479 -7.775,9.935 -11.662,13.822l0.018,0.028l-22.893,22.893l-0.018,-0.028c-0.027,0.043 -0.054,0.085 -0.081,0.127Z" style="fill:#51a2ff;stroke:#000001;stroke-width:2.08px;"/></g></g><g><path d="M107.692,154.616c0,0 0.001,0 0.001,-0.001l-39.419,-49.339c-10.239,-13.3 -20.989,-27.029 -28.156,-31.32c-7.167,-5.577 -14.334,-5.577 -23.037,-6.006c-3.072,0 -4.095,-0.858 -4.095,-5.148c0,-4.29 1.024,-5.148 4.095,-5.148c17.406,0.858 31.228,1.287 46.586,1.287c16.382,0 38.907,-0.858 55.289,-1.287c3.584,0 4.607,0.858 4.607,4.719c0,4.29 -1.024,5.148 -4.607,5.148c-11.774,0.858 -19.453,1.287 -22.525,6.436c-3.072,5.148 2.048,11.584 12.286,24.455l26.621,33.894l8.703,9.868l46.074,57.062c11.263,13.3 20.477,26.171 29.18,32.178c8.191,6.006 15.87,6.436 24.573,6.865c3.072,0.429 4.095,1.287 4.095,4.719c0,4.29 -1.024,5.148 -4.095,5.148c-16.382,-0.429 -31.74,-1.287 -48.122,-1.287c-13.822,0 -38.395,0.858 -55.801,1.287c-2.56,0 -4.095,-0.858 -4.095,-4.719c0,-3.432 1.536,-4.719 4.095,-4.719c13.31,-0.858 20.989,-1.287 22.525,-7.294c1.024,-4.719 -3.584,-12.871 -12.798,-24.455l-32.764,-42.045c-0.005,0.008 -0.012,0.015 -0.017,0.023l-9.199,-10.318Z" style="fill:#52525c;stroke:#000;stroke-width:2.29px;"/></g></svg>