<?xml version="1.0" encoding="UTF-8" standalone="no"?>
<!DOCTYPE svg PUBLIC "-//W3C//DTD SVG 1.1//EN" "http://www.w3.org/Graphics/SVG/1.1/DTD/svg11.dtd">
<svg width="100%" height="100%" viewBox="0 0 500 164" version="1.1" xmlns="http://www.w3.org/2000/svg" xmlns:xlink="http://www.w3.org/1999/xlink" xml:space="preserve" xmlns:serif="http://www.serif.com/" style="fill-rule:evenodd;clip-rule:evenodd;stroke-linejoin:round;stroke-miterlimit:2;">
    <g id="path4" transform="matrix(1,0,0,1,0,3)">
        <path d="M349.948,154.492C339.794,153.72 282.32,136.444 282.635,140.988C280.252,143.682 286.026,145.718 291.873,148.284C309.141,155.862 367.585,158.782 355.529,159.545C326.751,161.366 293.471,159.174 280.334,155.918C269.296,153.183 255.06,148.735 241.843,143.064C238.085,141.352 206.309,119.701 191.042,103.865C171.973,84.085 168.694,73.525 154.134,66.81C148.926,66.802 143.748,60.208 128.442,61.101C122.267,61.461 114.096,59.016 98.482,66.543C87.746,71.718 75.566,78.756 56.567,99.13C85.527,58.401 99.292,56.276 104.645,52.38C89.812,50.308 69.869,72.648 71.822,68.849C78.389,59.423 92.933,49.872 71.847,62.459C52.758,73.854 32.802,95.903 33.847,94.255C40.609,83.592 62.457,54.271 77.168,44.645C87.699,37.754 106.048,32.644 103.931,32.303C97.646,31.289 86.148,35.106 79.394,38.003C76.724,39.149 64.524,45.207 54.713,52.589C43.272,61.197 22.652,78.626 8.768,100.892C7.519,102.895 13.946,84.438 17.363,76.872C23.538,63.199 33.8,49.835 37.66,45.885C41.625,41.828 46.498,37.145 52.004,33.326C54.524,31.578 56.667,30.101 51.956,31.556L50.2,32.816C48.361,33.949 17.212,52.672 4.512,79.603C6.924,65.258 20.869,44.793 37.016,30.699C43.773,24.801 58.224,14.313 67.122,10.849C79.382,5.983 103.286,0.227 115.934,-0.761C132.434,-2.143 154.895,2.146 158.906,3.177C161.966,4.274 178.157,12.119 185.14,19.492C189.123,22.893 192.986,27.576 196.956,33.051C200.969,38.315 205.29,43.88 209.839,48.605C218.06,56.993 226.152,65.689 234.021,72.38C242.526,80.197 250.989,87.151 259.535,92.061C268.964,97.922 279.986,98.318 292.148,101.022C303.12,103.429 314.249,103.997 325.496,103.134C342.295,100.498 331.041,100.289 325.865,100.192C317.201,100.031 304.224,98.68 299.732,97.586C289.213,94.972 297.086,93.826 307.015,96.531C327.238,99.616 349.987,96.483 372.554,87.499C376.378,85.96 380.136,84.198 383.69,82.362C390.084,79.313 395.963,77.032 401.864,75.303C414.713,71.534 426.006,69.529 438.949,65.649C448.227,62.868 453.387,59.912 461.772,56.461C471.187,52.586 477.001,50.416 486.977,45.618C487.144,45.538 487.276,45.398 487.423,45.286C487.469,45.252 487.515,45.218 487.56,45.184C488.211,44.7 488.801,44.253 489.353,43.798C489.013,44.557 488.457,45.386 487.635,46.344C480.871,54.227 451.539,63.495 449.514,66.833C443.913,76.066 500.142,45.912 483.508,58.016C442.676,87.727 416.358,83.795 403.038,92.062C393.704,97.826 386.504,104.266 391.762,103.156C411.431,99.002 407.413,100.516 390.793,107.385C382.28,112.737 378.831,116.333 377.296,119.32C375.752,122.323 374.479,124.357 375.119,127.529C376.23,133.034 383.049,134.571 388.219,135.317C395.98,136.437 452.482,135.483 486.336,130.159C472.289,136.658 429.497,143.295 406.754,144.954C391.828,146.042 385.725,146.704 385.967,147.447C384.768,151.721 427.884,149.211 442.024,147.197C453.08,145.622 485.982,137.594 482.803,139.045C480.598,140.051 456.098,148.479 440.983,151.985C425.258,155.632 411.785,156.362 403.465,157.534C374.547,160.648 349.948,154.492 349.948,154.492Z" style="fill:white;fill-rule:nonzero;"/>
    </g>
</svg>
