<?xml version="1.0" encoding="UTF-8" standalone="no"?>
<!DOCTYPE svg PUBLIC "-//W3C//DTD SVG 1.1//EN" "http://www.w3.org/Graphics/SVG/1.1/DTD/svg11.dtd">
<svg width="100%" height="100%" viewBox="0 0 256 256" version="1.1" xmlns="http://www.w3.org/2000/svg" xmlns:xlink="http://www.w3.org/1999/xlink" xml:space="preserve" xmlns:serif="http://www.serif.com/" style="fill-rule:evenodd;clip-rule:evenodd;stroke-linejoin:round;stroke-miterlimit:2;">
    <g transform="matrix(1.279832,0,0,1.072586,-22.034121,-7.125029)">
        <path d="M101.362,150.795C101.362,150.795 101.363,150.795 101.363,150.794L70.563,104.794C62.563,92.394 54.163,79.594 48.563,75.594C42.963,70.394 37.363,70.394 30.563,69.994C28.163,69.994 27.363,69.194 27.363,65.194C27.363,61.194 28.163,60.394 30.563,60.394C44.163,61.194 54.963,61.594 66.963,61.594C79.763,61.594 97.363,60.794 110.163,60.394C112.963,60.394 113.763,61.194 113.763,64.794C113.763,68.794 112.963,69.594 110.163,69.594C100.963,70.394 94.963,70.794 92.563,75.594C90.163,80.394 94.163,86.394 102.163,98.394L122.963,129.994L129.763,139.194L165.763,192.394C174.563,204.794 181.763,216.794 188.563,222.394C194.963,227.994 200.963,228.394 207.763,228.794C210.163,229.194 210.963,229.994 210.963,233.194C210.963,237.194 210.163,237.994 207.763,237.994C194.963,237.594 182.963,236.794 170.163,236.794C159.363,236.794 140.163,237.594 126.563,237.994C124.563,237.994 123.363,237.194 123.363,233.594C123.363,230.394 124.563,229.194 126.563,229.194C136.963,228.394 142.963,227.994 144.163,222.394C144.963,217.994 141.363,210.394 134.163,199.594L108.563,160.394C108.559,160.401 108.554,160.408 108.55,160.415L101.362,150.795Z" style="fill:rgb(82,82,92);stroke:white;stroke-width:12.35px;"/>
    </g>
    <g transform="matrix(1.079858,0,0,1.079858,-6.083108,-29.404531)">
        <g transform="matrix(1,0,0,1,-44,-2)">
            <path d="M143.488,137.512C140.727,141.852 138.731,145.041 135.163,150.194L114.363,178.594C106.763,189.794 107.563,194.994 109.963,199.794C111.963,204.594 121.563,205.394 128.763,206.194C131.163,206.594 132.363,206.994 132.363,210.594C132.363,214.194 131.163,214.994 128.763,214.994C117.963,214.594 102.963,214.794 92.163,214.794C81.363,214.794 70.936,214.994 60.763,214.994C58.363,214.994 57.563,214.194 57.563,210.194C57.563,206.994 58.363,205.794 60.763,205.794C68.363,205.394 74.763,202.594 79.963,198.194C84.763,194.594 89.963,188.594 101.963,173.394L125.563,141.794C129.476,136.814 131.808,133.732 135.09,129.452L157.914,106.92L157.963,106.994L158.371,106.469C160.89,103.226 162.163,101.535 165.963,96.594L183.963,71.794C190.763,61.794 191.963,57.794 190.363,52.994C188.763,48.194 181.163,47.394 172.763,46.594C169.963,46.594 169.163,46.194 169.163,42.194C169.163,38.194 169.963,37.394 172.763,37.394C183.163,37.394 195.563,37.594 205.563,37.594C216.363,37.594 229.163,38.194 239.163,37.394C241.563,37.394 241.963,38.194 241.963,42.194C241.963,46.194 241.563,46.994 239.163,46.994C233.163,47.794 224.763,49.394 219.563,53.394C211.963,57.794 205.163,65.794 196.363,77.394L175.563,103.394C170.763,109.394 168.363,112.594 164.763,116.194L164.78,116.22L143.58,137.42L143.563,137.394C143.538,137.434 143.513,137.473 143.488,137.512Z" style="fill:rgb(255,150,32);stroke:white;stroke-width:13.5px;"/>
        </g>
        <g transform="matrix(1,0,0,1,-27,-2)">
            <path d="M143.488,137.512C140.727,141.852 138.731,145.041 135.163,150.194L114.363,178.594C106.763,189.794 107.563,194.994 109.963,199.794C111.963,204.594 121.563,205.394 128.763,206.194C131.163,206.594 132.363,206.994 132.363,210.594C132.363,214.194 131.163,214.994 128.763,214.994C117.963,214.594 102.963,214.794 92.163,214.794C81.363,214.794 71.163,214.594 60.763,214.994C58.363,214.994 57.563,214.194 57.563,210.194C57.563,206.994 58.363,205.794 60.763,205.794C68.363,205.394 74.763,202.594 79.963,198.194C84.763,194.594 89.963,188.594 101.963,173.394L125.563,141.794C129.476,136.814 131.808,133.732 135.09,129.452L157.914,106.92L157.963,106.994L158.371,106.469C160.89,103.226 162.163,101.535 165.963,96.594L183.963,71.794C190.763,61.794 192.22,57.17 190.363,52.994C188.492,48.787 181.163,47.394 172.763,46.594C169.963,46.594 169.163,46.194 169.163,42.194C169.163,38.194 169.963,37.394 172.763,37.394C183.953,37.394 195.563,37.594 205.563,37.594C216.363,37.594 229.163,38.194 239.163,37.394C241.563,37.394 241.963,38.194 241.963,42.194C241.963,46.194 241.563,46.994 239.163,46.994C233.163,47.794 224.763,49.394 219.563,53.394C211.963,57.794 205.163,65.794 196.363,77.394L175.563,103.394C170.763,109.394 168.363,112.594 164.763,116.194L164.78,116.22L143.58,137.42L143.563,137.394C143.538,137.434 143.513,137.473 143.488,137.512Z" style="fill:rgb(255,32,86);stroke:white;stroke-width:13.5px;"/>
        </g>
        <g transform="matrix(1,0,0,1,-12,-2)">
            <path d="M143.488,137.512C140.727,141.852 138.731,145.041 135.163,150.194L114.363,178.594C106.763,189.794 107.563,194.994 109.963,199.794C111.963,204.594 121.563,205.394 128.763,206.194C131.163,206.594 132.363,206.994 132.363,210.594C132.363,214.194 131.163,214.994 128.763,214.994C117.963,214.994 104.009,214.79 93.163,214.794C82.409,214.799 70.73,214.994 60.763,214.994C58.363,214.994 57.563,214.194 57.563,210.194C57.563,206.994 58.363,205.794 60.763,205.794C68.363,205.394 74.763,202.594 79.963,198.194C84.763,194.594 89.963,188.594 101.963,173.394L125.563,141.794C129.476,136.814 131.808,133.732 135.09,129.452L157.914,106.92L157.963,106.994L158.371,106.469C160.89,103.226 162.163,101.535 165.963,96.594L183.963,71.794C190.763,61.794 191.963,57.794 190.363,52.994C188.763,48.194 181.163,47.394 172.763,46.594C169.963,46.594 169.163,46.194 169.163,42.194C169.163,38.194 169.963,37.394 172.763,37.394C184.368,37.394 194.513,37.525 204.563,37.594C215.309,37.669 229.163,37.394 239.163,37.394C241.563,37.394 241.963,38.194 241.963,42.194C241.963,46.194 241.563,46.994 239.163,46.994C233.163,47.794 224.763,49.394 219.563,53.394C211.963,57.794 205.163,65.794 196.363,77.394L175.563,103.394C170.763,109.394 168.363,112.594 164.763,116.194L164.78,116.22L143.58,137.42L143.563,137.394C143.538,137.434 143.513,137.473 143.488,137.512Z" style="fill:rgb(81,162,255);stroke:white;stroke-width:13.5px;"/>
        </g>
    </g>
    <g transform="matrix(1.079858,0,0,1.079858,-6.083108,-29.404531)">
        <g transform="matrix(1,0,0,1,-44,-2)">
            <path d="M143.488,137.512C140.727,141.852 138.731,145.041 135.163,150.194L114.363,178.594C106.763,189.794 107.563,194.994 109.963,199.794C111.963,204.594 121.563,205.394 128.763,206.194C131.163,206.594 132.363,206.994 132.363,210.594C132.363,214.194 131.163,214.994 128.763,214.994C117.963,214.594 102.963,214.794 92.163,214.794C81.363,214.794 70.936,214.994 60.763,214.994C58.363,214.994 57.563,214.194 57.563,210.194C57.563,206.994 58.363,205.794 60.763,205.794C68.363,205.394 74.763,202.594 79.963,198.194C84.763,194.594 89.963,188.594 101.963,173.394L125.563,141.794C129.476,136.814 131.808,133.732 135.09,129.452L157.914,106.92L157.963,106.994L158.371,106.469C160.89,103.226 162.163,101.535 165.963,96.594L183.963,71.794C190.763,61.794 191.963,57.794 190.363,52.994C188.763,48.194 181.163,47.394 172.763,46.594C169.963,46.594 169.163,46.194 169.163,42.194C169.163,38.194 169.963,37.394 172.763,37.394C183.163,37.394 195.563,37.594 205.563,37.594C216.363,37.594 229.163,38.194 239.163,37.394C241.563,37.394 241.963,38.194 241.963,42.194C241.963,46.194 241.563,46.994 239.163,46.994C233.163,47.794 224.763,49.394 219.563,53.394C211.963,57.794 205.163,65.794 196.363,77.394L175.563,103.394C170.763,109.394 168.363,112.594 164.763,116.194L164.78,116.22L143.58,137.42L143.563,137.394C143.538,137.434 143.513,137.473 143.488,137.512Z" style="fill:rgb(255,150,32);stroke:rgb(0,0,1);stroke-width:1.93px;"/>
        </g>
        <g transform="matrix(1,0,0,1,-27,-2)">
            <path d="M143.488,137.512C140.727,141.852 138.731,145.041 135.163,150.194L114.363,178.594C106.763,189.794 107.563,194.994 109.963,199.794C111.963,204.594 121.563,205.394 128.763,206.194C131.163,206.594 132.363,206.994 132.363,210.594C132.363,214.194 131.163,214.994 128.763,214.994C117.963,214.594 102.963,214.794 92.163,214.794C81.363,214.794 71.163,214.594 60.763,214.994C58.363,214.994 57.563,214.194 57.563,210.194C57.563,206.994 58.363,205.794 60.763,205.794C68.363,205.394 74.763,202.594 79.963,198.194C84.763,194.594 89.963,188.594 101.963,173.394L125.563,141.794C129.476,136.814 131.808,133.732 135.09,129.452L157.914,106.92L157.963,106.994L158.371,106.469C160.89,103.226 162.163,101.535 165.963,96.594L183.963,71.794C190.763,61.794 192.22,57.17 190.363,52.994C188.492,48.787 181.163,47.394 172.763,46.594C169.963,46.594 169.163,46.194 169.163,42.194C169.163,38.194 169.963,37.394 172.763,37.394C183.953,37.394 195.563,37.594 205.563,37.594C216.363,37.594 229.163,38.194 239.163,37.394C241.563,37.394 241.963,38.194 241.963,42.194C241.963,46.194 241.563,46.994 239.163,46.994C233.163,47.794 224.763,49.394 219.563,53.394C211.963,57.794 205.163,65.794 196.363,77.394L175.563,103.394C170.763,109.394 168.363,112.594 164.763,116.194L164.78,116.22L143.58,137.42L143.563,137.394C143.538,137.434 143.513,137.473 143.488,137.512Z" style="fill:rgb(255,32,86);stroke:rgb(0,0,1);stroke-width:1.93px;"/>
        </g>
        <g transform="matrix(1,0,0,1,-12,-2)">
            <path d="M143.488,137.512C140.727,141.852 138.731,145.041 135.163,150.194L114.363,178.594C106.763,189.794 107.563,194.994 109.963,199.794C111.963,204.594 121.563,205.394 128.763,206.194C131.163,206.594 132.363,206.994 132.363,210.594C132.363,214.194 131.163,214.994 128.763,214.994C117.963,214.994 104.009,214.79 93.163,214.794C82.409,214.799 70.73,214.994 60.763,214.994C58.363,214.994 57.563,214.194 57.563,210.194C57.563,206.994 58.363,205.794 60.763,205.794C68.363,205.394 74.763,202.594 79.963,198.194C84.763,194.594 89.963,188.594 101.963,173.394L125.563,141.794C129.476,136.814 131.808,133.732 135.09,129.452L157.914,106.92L157.963,106.994L158.371,106.469C160.89,103.226 162.163,101.535 165.963,96.594L183.963,71.794C190.763,61.794 191.963,57.794 190.363,52.994C188.763,48.194 181.163,47.394 172.763,46.594C169.963,46.594 169.163,46.194 169.163,42.194C169.163,38.194 169.963,37.394 172.763,37.394C184.368,37.394 194.513,37.525 204.563,37.594C215.309,37.669 229.163,37.394 239.163,37.394C241.563,37.394 241.963,38.194 241.963,42.194C241.963,46.194 241.563,46.994 239.163,46.994C233.163,47.794 224.763,49.394 219.563,53.394C211.963,57.794 205.163,65.794 196.363,77.394L175.563,103.394C170.763,109.394 168.363,112.594 164.763,116.194L164.78,116.22L143.58,137.42L143.563,137.394C143.538,137.434 143.513,137.473 143.488,137.512Z" style="fill:rgb(81,162,255);stroke:rgb(0,0,1);stroke-width:1.93px;"/>
        </g>
    </g>
    <g transform="matrix(1.279832,0,0,1.072586,-22.034121,-7.125029)">
        <path d="M101.362,150.795C101.362,150.795 101.363,150.795 101.363,150.794L70.563,104.794C62.563,92.394 54.163,79.594 48.563,75.594C42.963,70.394 37.363,70.394 30.563,69.994C28.163,69.994 27.363,69.194 27.363,65.194C27.363,61.194 28.163,60.394 30.563,60.394C44.163,61.194 54.963,61.594 66.963,61.594C79.763,61.594 97.363,60.794 110.163,60.394C112.963,60.394 113.763,61.194 113.763,64.794C113.763,68.794 112.963,69.594 110.163,69.594C100.963,70.394 94.963,70.794 92.563,75.594C90.163,80.394 94.163,86.394 102.163,98.394L122.963,129.994L129.763,139.194L165.763,192.394C174.563,204.794 181.763,216.794 188.563,222.394C194.963,227.994 200.963,228.394 207.763,228.794C210.163,229.194 210.963,229.994 210.963,233.194C210.963,237.194 210.163,237.994 207.763,237.994C194.963,237.594 182.963,236.794 170.163,236.794C159.363,236.794 140.163,237.594 126.563,237.994C124.563,237.994 123.363,237.194 123.363,233.594C123.363,230.394 124.563,229.194 126.563,229.194C136.963,228.394 142.963,227.994 144.163,222.394C144.963,217.994 141.363,210.394 134.163,199.594L108.563,160.394C108.559,160.401 108.554,160.408 108.55,160.415L101.362,150.795Z" style="fill:rgb(82,82,92);stroke:black;stroke-width:1.94px;"/>
    </g>
</svg>
