<?xml version="1.0" encoding="UTF-8" standalone="no"?><!DOCTYPE svg PUBLIC "-//W3C//DTD SVG 1.1//EN" "http://www.w3.org/Graphics/SVG/1.1/DTD/svg11.dtd"><svg width="100%" height="100%" viewBox="0 0 500 164" version="1.1" xmlns="http://www.w3.org/2000/svg" xmlns:xlink="http://www.w3.org/1999/xlink" xml:space="preserve" xmlns:serif="http://www.serif.com/" style="fill-rule:evenodd;clip-rule:evenodd;stroke-linejoin:round;stroke-miterlimit:2;"><g id="text54"><text x="65.444px" y="137.615px" style="font-family:'CoolveticaCompressedHv-Regular', 'Coolvetica', sans-serif;font-weight:900;font-stretch:extra-condensed;font-size:166.104px;fill:#fff;stroke:#fffbfb;stroke-width:24px;">IntelliumX</text></g><path id="path4" d="M347.416,151.922c-10.154,-0.772 -51.096,-7.478 -56.781,-7.934c-4.383,-0.306 -11.919,-3.539 -9.541,-0.696c0.319,0.381 11.596,4.751 12.779,4.992c15.698,3.186 63.712,9.498 51.656,10.261c-7.39,-0.229 -48.568,-1.904 -55.195,-2.627c-11.32,-1.082 -23.274,-3.183 -36.491,-8.854c-3.758,-1.712 -7.526,-3.754 -11.325,-6.143c-15.733,-8.485 -30.102,-23.588 -42.526,-36.951c-5.78,-6.097 -11.026,-13.049 -15.766,-20.052c-1.441,-2.056 -2.869,-4.145 -4.184,-6.053c-3.407,-5.397 1.882,-9.252 -2.308,-10.497l-5.846,-1.736c-5.121,-1.521 -19.038,1.044 -16.723,4.782c5.796,-0.238 25.733,18.907 27.21,19.803c3.324,1.801 -22.032,-15.817 -24.631,-15.968c-3.871,-0.224 -4.006,1.514 -8.284,-2.002c-2.882,-3.684 1.234,-11.722 -2.326,-15.437c-3.99,-1.02 -3.164,10.865 -4.295,9.54c-3.08,-3.611 1.277,-15.604 -4.679,-17.979c-3.908,-1.919 -61.687,23.813 -83.431,36.537c7.054,-11.477 37.484,-19.286 45.558,-26.56c-7.48,-0.753 -69.748,33.743 -66.44,30.907c14.663,-12.569 49.868,-32.604 58.321,-38.61c2.572,-1.828 8.574,-4.039 8.763,-12.342c-3.829,-3.34 -18.192,-4.009 -35.537,2.7c-3.965,1.294 -7.87,3.204 -11.681,5.586c-12.148,7.577 -22.344,19.589 -30.876,32.835c-12.196,23.288 -15.802,29.65 -5.474,-2.552c1.574,-4.909 16.437,-27.037 20.297,-30.987c3.965,-4.057 8.838,-8.74 14.344,-12.559c2.52,-1.748 4.663,-3.225 -0.048,-1.77l-1.756,1.26c-1.839,1.133 -24.988,18.856 -37.688,45.787c2.412,-14.345 16.357,-32.81 32.504,-46.904c6.757,-5.898 22.208,-11.386 31.106,-14.85c12.26,-4.866 28.164,-7.622 40.812,-8.61c16.5,-1.382 31.774,-0.165 46.873,4.856c3.42,0.303 2.979,-1.266 2.646,-2.82c-0.333,-1.554 -0.558,-3.129 3.453,-2.098c3.06,1.097 8.251,3.942 15.234,11.315c3.983,3.401 7.846,8.084 11.816,13.559c4.013,5.264 8.334,10.829 12.883,15.554c8.221,8.388 16.313,17.084 24.182,23.775c8.505,7.817 16.968,14.771 25.514,19.681c9.429,5.861 20.451,6.257 32.613,8.961c10.972,2.407 22.101,2.975 33.348,2.112c16.799,-2.636 5.545,-2.845 0.369,-2.942c-8.664,-0.161 -21.641,-1.512 -26.133,-2.606c-10.519,-2.614 -2.646,-3.76 7.283,-1.055c20.223,3.085 42.972,-0.048 65.539,-9.032c3.824,-1.539 7.582,-3.301 11.136,-5.137c6.394,-3.049 12.273,-5.33 18.174,-7.059c12.849,-3.769 24.142,-5.774 37.085,-9.654c9.278,-2.781 14.438,-5.737 22.823,-9.188c9.415,-3.875 15.229,-6.045 25.205,-10.843c0.167,-0.08 0.299,-0.22 0.446,-0.332c0.046,-0.034 0.092,-0.068 0.137,-0.102c0.651,-0.484 1.241,-0.931 1.793,-1.386c-0.34,0.759 -0.896,1.588 -1.718,2.546c-6.764,7.883 -36.096,17.151 -38.121,20.489c-5.601,9.233 50.628,-20.921 33.994,-8.817c-40.832,29.711 -67.15,25.779 -80.47,34.046c-9.334,5.764 -16.534,12.204 -11.276,11.094c19.669,-4.154 15.651,-2.64 -0.969,4.229c-8.513,5.352 -11.962,8.948 -13.497,11.935c-1.544,3.003 -1.299,3.416 -2.177,8.209c2.111,11.505 8.93,13.042 14.1,13.788c7.761,1.12 84.263,-0.834 97.117,-11.158c-10.881,11.705 -87.062,16.161 -99.369,14.288c5.801,3.274 48.106,2.114 70.057,-1.25c13.136,-2.013 15.958,-1.603 12.779,-0.152c-4.5,2.053 -21.022,6.19 -37.338,8.489c-28.918,3.114 -69.243,1.589 -85.051,0.387l0,-0Z" style="fill:#161d50;fill-rule:nonzero;stroke:#fff;stroke-width:15px;"/><path id="path41" serif:id="path4" d="M347.416,151.922c-10.154,-0.772 -51.096,-7.478 -56.781,-7.934c-4.383,-0.306 -11.919,-3.539 -9.541,-0.696c0.319,0.381 11.596,4.751 12.779,4.992c15.698,3.186 63.712,9.498 51.656,10.261c-7.39,-0.229 -48.568,-1.904 -55.195,-2.627c-11.32,-1.082 -23.274,-3.183 -36.491,-8.854c-3.758,-1.712 -7.526,-3.754 -11.325,-6.143c-15.733,-8.485 -30.102,-23.588 -42.526,-36.951c-5.78,-6.097 -11.026,-13.049 -15.766,-20.052c-1.441,-2.056 -2.869,-4.145 -4.184,-6.053c-3.407,-5.397 1.882,-9.252 -2.308,-10.497l-5.846,-1.736c-5.121,-1.521 -19.038,1.044 -16.723,4.782c5.796,-0.238 25.733,18.907 27.21,19.803c3.324,1.801 -22.032,-15.817 -24.631,-15.968c-3.871,-0.224 -4.006,1.514 -8.284,-2.002c-2.882,-3.684 1.234,-11.722 -2.326,-15.437c-3.99,-1.02 -3.164,10.865 -4.295,9.54c-3.08,-3.611 1.277,-15.604 -4.679,-17.979c-3.908,-1.919 -61.687,23.813 -83.431,36.537c7.054,-11.477 37.484,-19.286 45.558,-26.56c-7.48,-0.753 -69.748,33.743 -66.44,30.907c14.663,-12.569 49.868,-32.604 58.321,-38.61c2.572,-1.828 8.574,-4.039 8.763,-12.342c-3.829,-3.34 -18.192,-4.009 -35.537,2.7c-3.965,1.294 -7.87,3.204 -11.681,5.586c-12.148,7.577 -22.344,19.589 -30.876,32.835c-12.196,23.288 -15.802,29.65 -5.474,-2.552c1.574,-4.909 16.437,-27.037 20.297,-30.987c3.965,-4.057 8.838,-8.74 14.344,-12.559c2.52,-1.748 4.663,-3.225 -0.048,-1.77l-1.756,1.26c-1.839,1.133 -24.988,18.856 -37.688,45.787c2.412,-14.345 16.357,-32.81 32.504,-46.904c6.757,-5.898 22.208,-11.386 31.106,-14.85c12.26,-4.866 28.164,-7.622 40.812,-8.61c16.5,-1.382 31.774,-0.165 46.873,4.856c3.42,0.303 2.979,-1.266 2.646,-2.82c-0.333,-1.554 -0.558,-3.129 3.453,-2.098c3.06,1.097 8.251,3.942 15.234,11.315c3.983,3.401 7.846,8.084 11.816,13.559c4.013,5.264 8.334,10.829 12.883,15.554c8.221,8.388 16.313,17.084 24.182,23.775c8.505,7.817 16.968,14.771 25.514,19.681c9.429,5.861 20.451,6.257 32.613,8.961c10.972,2.407 22.101,2.975 33.348,2.112c16.799,-2.636 5.545,-2.845 0.369,-2.942c-8.664,-0.161 -21.641,-1.512 -26.133,-2.606c-10.519,-2.614 -2.646,-3.76 7.283,-1.055c20.223,3.085 42.972,-0.048 65.539,-9.032c3.824,-1.539 7.582,-3.301 11.136,-5.137c6.394,-3.049 12.273,-5.33 18.174,-7.059c12.849,-3.769 24.142,-5.774 37.085,-9.654c9.278,-2.781 14.438,-5.737 22.823,-9.188c9.415,-3.875 15.229,-6.045 25.205,-10.843c0.167,-0.08 0.299,-0.22 0.446,-0.332c0.046,-0.034 0.092,-0.068 0.137,-0.102c0.651,-0.484 1.241,-0.931 1.793,-1.386c-0.34,0.759 -0.896,1.588 -1.718,2.546c-6.764,7.883 -36.096,17.151 -38.121,20.489c-5.601,9.233 50.628,-20.921 33.994,-8.817c-40.832,29.711 -67.15,25.779 -80.47,34.046c-9.334,5.764 -16.534,12.204 -11.276,11.094c19.669,-4.154 15.651,-2.64 -0.969,4.229c-8.513,5.352 -11.962,8.948 -13.497,11.935c-1.544,3.003 -1.299,3.416 -2.177,8.209c2.111,11.505 8.93,13.042 14.1,13.788c7.761,1.12 84.263,-0.834 97.117,-11.158c-10.881,11.705 -87.062,16.161 -99.369,14.288c5.801,3.274 48.106,2.114 70.057,-1.25c13.136,-2.013 15.958,-1.603 12.779,-0.152c-4.5,2.053 -21.022,6.19 -37.338,8.489c-28.918,3.114 -69.243,1.589 -85.051,0.387l0,-0Z" style="fill:#80461b;fill-rule:nonzero;"/><g id="text541" serif:id="text54"><text x="65.444px" y="137.615px" style="font-family:'CoolveticaCompressedHv-Regular', 'Coolvetica', sans-serif;font-weight:900;font-stretch:extra-condensed;font-size:166.104px;stroke:#000;stroke-width:10px;">IntelliumX</text></g><g id="text542" serif:id="text54"><text x="65.444px" y="137.615px" style="font-family:'CoolveticaCompressedHv-Regular', 'Coolvetica', sans-serif;font-weight:900;font-stretch:extra-condensed;font-size:166.104px;fill:url(#_Linear1);">IntelliumX</text></g><defs><linearGradient id="_Linear1" x1="0" y1="0" x2="1" y2="0" gradientUnits="userSpaceOnUse" gradientTransform="matrix(399.300676,0,0,399.300676,55.314879,90.470127)"><stop offset="0" style="stop-color:#f08000;stop-opacity:1"/><stop offset="1" style="stop-color:#ffd580;stop-opacity:1"/></linearGradient></defs></svg>