<?xml version="1.0" encoding="UTF-8" standalone="no"?>
<!DOCTYPE svg PUBLIC "-//W3C//DTD SVG 1.1//EN" "http://www.w3.org/Graphics/SVG/1.1/DTD/svg11.dtd">
<svg width="100%" height="100%" viewBox="0 0 1254 238" version="1.1" xmlns="http://www.w3.org/2000/svg" xmlns:xlink="http://www.w3.org/1999/xlink" xml:space="preserve" xmlns:serif="http://www.serif.com/" style="fill-rule:evenodd;clip-rule:evenodd;stroke-linejoin:round;stroke-miterlimit:2;">
    <g transform="matrix(1,0,0,1,-945.779655,-1316.117819)">
        <g id="White-version-2" serif:id="White version 2">
        </g>
        <g id="Back-version-2---Charcoal" serif:id="Back version 2 - Charcoal">
        </g>
        <g id="Back-version-2---Onyx" serif:id="Back version 2 - Onyx" transform="matrix(1,0,0,1,-45.5,989.6)">
            <g transform="matrix(1,0,0,1,500.562992,-524.15748)">
                <rect x="490.717" y="853.075" width="41.7" height="199.2" style="fill:rgb(53,57,53);fill-rule:nonzero;"/>
                <path d="M681.517,1052.275L681.517,949.975C681.517,917.875 660.817,900.775 632.617,900.775C608.917,900.775 593.917,909.775 584.917,926.275L584.917,904.675L547.717,904.675L547.717,1052.275L586.717,1052.275L586.717,967.675C586.717,945.175 596.617,933.775 617.017,933.775C635.617,933.775 642.217,940.075 642.217,962.875L642.217,1052.275L681.517,1052.275Z" style="fill:rgb(53,57,53);fill-rule:nonzero;"/>
                <path d="M782.317,993.475C782.317,1011.775 775.117,1022.275 759.517,1022.275C743.617,1022.275 737.017,1011.475 737.017,992.875L737.017,932.275L818.617,932.275L818.617,904.675L737.017,904.675L737.017,864.775L698.617,864.775L698.617,996.775C698.617,1028.575 715.717,1056.175 758.917,1056.175C800.617,1056.175 818.617,1028.275 818.617,997.075L818.617,955.075L782.317,955.075L782.317,993.475Z" style="fill:rgb(53,57,53);fill-rule:nonzero;"/>
                <path d="M871.417,964.075C872.917,943.675 885.817,931.675 901.417,931.675C916.717,931.675 931.117,942.175 931.717,964.075L871.417,964.075ZM971.917,988.675C971.917,930.175 947.917,900.775 902.617,900.775C857.317,900.775 831.217,930.175 831.217,975.775C831.217,1029.175 855.817,1056.175 905.017,1056.175C936.517,1056.175 960.817,1039.075 969.817,1008.775L929.617,1008.775C926.917,1018.975 915.817,1025.275 903.217,1025.275C884.017,1025.275 871.417,1010.875 870.217,988.675L971.917,988.675Z" style="fill:rgb(53,57,53);fill-rule:nonzero;"/>
                <rect x="985.417" y="850.675" width="39" height="201.6" style="fill:rgb(53,57,53);fill-rule:nonzero;"/>
                <rect x="1040.917" y="850.675" width="39" height="201.6" style="fill:rgb(53,57,53);fill-rule:nonzero;"/>
                <path d="M1136.317,1052.275L1136.317,904.675L1097.317,904.675L1097.317,1052.275L1136.317,1052.275ZM1136.317,886.975L1136.317,850.675L1097.317,850.675L1097.317,886.975L1136.317,886.975Z" style="fill:rgb(53,57,53);fill-rule:nonzero;"/>
                <path d="M1286.917,1052.275L1286.917,904.675L1248.217,904.675L1248.217,989.875C1248.217,1009.375 1237.717,1023.475 1217.917,1023.475C1201.417,1023.475 1193.017,1014.475 1193.017,995.875L1193.017,904.675L1154.017,904.675L1154.017,1001.875C1154.017,1034.275 1174.717,1056.175 1204.117,1056.175C1224.517,1056.175 1239.817,1048.375 1250.017,1031.575L1250.017,1052.275L1286.917,1052.275Z" style="fill:rgb(53,57,53);fill-rule:nonzero;"/>
                <path d="M1515.217,1052.275L1515.217,949.975C1515.217,922.375 1494.517,900.775 1464.817,900.775C1446.217,900.775 1433.017,907.975 1424.917,924.175C1413.517,907.075 1403.917,900.775 1383.817,900.775C1364.317,900.775 1350.517,906.775 1340.617,926.275L1340.617,904.675L1304.017,904.675L1304.017,1052.275L1343.017,1052.275L1343.017,962.575C1343.017,943.375 1351.117,933.775 1366.717,933.775C1383.817,933.775 1390.117,939.775 1390.117,963.475L1390.117,1052.275L1429.117,1052.275L1429.117,964.075C1429.117,946.075 1439.617,932.575 1454.017,932.575C1467.817,932.575 1477.117,945.175 1477.117,962.875L1477.117,1052.275L1515.217,1052.275Z" style="fill:rgb(53,57,53);fill-rule:nonzero;"/>
            </g>
            <g transform="matrix(0.918224,0,0,0.918224,1568.759448,-403.910668)">
                <path d="M727.717,985.375C730.317,985.375 732.367,986.575 733.867,988.975C735.367,991.375 736.117,994.675 736.117,998.875C736.117,1006.675 734.217,1012.875 730.417,1017.475C720.617,1029.075 710.917,1038.025 701.317,1044.325C691.717,1050.625 681.017,1053.775 669.217,1053.775C651.417,1053.775 637.967,1048.475 628.867,1037.875C619.767,1027.275 612.417,1011.775 606.817,991.375L596.617,954.175L525.817,1041.775C521.817,1046.775 517.717,1050.025 513.517,1051.525C509.317,1053.025 504.417,1053.775 498.817,1053.775C493.217,1053.775 488.567,1052.725 484.867,1050.625C481.167,1048.525 479.317,1045.575 479.317,1041.775C479.317,1036.775 482.217,1031.075 488.017,1024.675L585.217,913.975L575.617,878.875C571.017,862.475 565.917,850.975 560.317,844.375C554.717,837.775 548.317,834.475 541.117,834.475C530.517,834.475 518.117,842.175 503.917,857.575C501.517,860.175 498.817,861.475 495.817,861.475C492.817,861.475 490.267,860.325 488.167,858.025C486.067,855.725 485.017,852.775 485.017,849.175C485.017,843.175 487.917,836.675 493.717,829.675C501.917,820.075 510.817,812.375 520.417,806.575C530.017,800.775 541.417,797.875 554.617,797.875C568.817,797.875 580.517,802.325 589.717,811.225C598.917,820.125 606.217,834.475 611.617,854.275L617.617,875.275L670.117,811.375C674.117,806.575 678.217,803.175 682.417,801.175C686.617,799.175 691.717,798.175 697.717,798.175C703.117,798.175 707.367,799.175 710.467,801.175C713.567,803.175 715.117,805.975 715.117,809.575C715.117,814.375 712.417,819.875 707.017,826.075L629.017,916.075L646.117,977.275C649.117,987.875 651.817,995.975 654.217,1001.575C656.617,1007.175 659.567,1011.325 663.067,1014.025C666.567,1016.725 671.217,1018.075 677.017,1018.075C683.217,1018.075 689.667,1015.875 696.367,1011.475C703.067,1007.075 710.817,999.775 719.617,989.575C722.017,986.775 724.717,985.375 727.717,985.375Z" style="fill:rgb(53,57,53);fill-rule:nonzero;"/>
            </g>
        </g>
        <g id="Back-version-2---Jet-Black" serif:id="Back version 2 - Jet Black">
        </g>
        <g id="Back-version-2---Matte-Black" serif:id="Back version 2 - Matte Black">
        </g>
        <g id="Back-version-2---Black" serif:id="Back version 2 - Black">
        </g>
    </g>
</svg>
