<?xml version="1.0" encoding="UTF-8" standalone="no"?>
<!-- Created with Inkscape (http://www.inkscape.org/) -->

<svg
   version="1.1"
   id="svg1"
   width="246.57957"
   height="246.57957"
   viewBox="0 0 246.57957 246.57957"
   sodipodi:docname="Heartbeat Central v03.svg"
   inkscape:export-filename="Heartbeat Central v03.png"
   inkscape:export-xdpi="96"
   inkscape:export-ydpi="96"
   inkscape:version="1.4.2 (f4327f4, 2025-05-13)"
   xmlns:inkscape="http://www.inkscape.org/namespaces/inkscape"
   xmlns:sodipodi="http://sodipodi.sourceforge.net/DTD/sodipodi-0.dtd"
   xmlns="http://www.w3.org/2000/svg"
   xmlns:svg="http://www.w3.org/2000/svg">
  <defs
     id="defs1" />
  <sodipodi:namedview
     id="namedview1"
     pagecolor="#a5a5a5"
     bordercolor="#000000"
     borderopacity="0.25"
     inkscape:showpageshadow="2"
     inkscape:pageopacity="0.0"
     inkscape:pagecheckerboard="0"
     inkscape:deskcolor="#d1d1d1"
     showgrid="false"
     showguides="false"
     inkscape:zoom="2.1129081"
     inkscape:cx="25.793834"
     inkscape:cy="102.93869"
     inkscape:window-width="1920"
     inkscape:window-height="1009"
     inkscape:window-x="-8"
     inkscape:window-y="-8"
     inkscape:window-maximized="1"
     inkscape:current-layer="g1" />
  <g
     inkscape:groupmode="layer"
     inkscape:label="Image"
     id="g1"
     transform="translate(4.3444901,42.433304)">
    <path
       style="fill:#000000;stroke:#ffffff;stroke-width:14;stroke-dasharray:none"
       d="M 123.94911,174.19478 C 96.780552,155.028 77.486549,139.58204 63.259278,125.60905 52.630035,115.16979 50.753777,111.93628 53.539469,108.85813 c 3.060831,-3.38218 6.137054,-1.54917 19.425643,11.57509 16.717603,16.51086 30.370868,27.42511 50.237828,40.15952 l 7.22054,4.62824 4.02081,-2.27665 c 8.26418,-4.67931 35.77949,-25.3725 45.95712,-34.56256 20.83029,-18.80904 30.51391,-30.24996 37.16827,-43.91327 2.83149,-5.81386 3.39543,-8.08726 3.39543,-13.68794 0,-21.769629 -11.97358,-41.775107 -30.49648,-50.953566 -4.83215,-2.394423 -10.43417,-4.347204 -13.60836,-4.743673 -7.79623,-0.973779 -18.17162,0.376531 -24.18046,3.14698 -6.11447,2.819152 -14.54413,10.148279 -18.81986,16.362842 l -3.02275,4.393412 -4.43485,-6.024323 C 121.15429,25.833251 112.02585,18.813888 104.71358,16.284538 97.283572,13.714461 86.279172,13.935049 77.713757,16.825763 52.859506,25.21374 35.274908,57.213105 42.654614,80.62423 l 1.689503,5.35971 17.968197,-0.27182 17.968197,-0.27183 6.337934,-10.68122 c 3.5908,-6.05153 7.190337,-10.95177 8.304527,-11.3054 4.520912,-1.434884 5.478598,0.49429 12.504598,25.18936 3.72381,13.08849 7.05719,24.33057 7.4075,24.9824 0.35032,0.65182 5.54985,-15.99818 11.55452,-37 11.06716,-38.708338 12.01153,-41.608634 13.97522,-42.919825 2.17279,-1.450808 5.57868,-0.726791 6.9842,1.484687 0.7865,1.2375 5.54805,15.227064 10.58123,31.087918 5.03317,15.86086 9.58826,29.98741 10.12242,31.39234 0.94876,2.49544 1.08045,2.39528 5.7031,-4.33792 l 4.73191,-6.89234 12.19572,-0.28043 c 11.8989,-0.27361 12.23384,-0.22228 13.76141,2.10909 1.57956,2.41072 1.17664,5.47944 -0.90675,6.90603 -0.59012,0.40408 -5.12358,0.74158 -10.07436,0.75 l -9.00143,0.0153 -6.40836,10.09424 c -6.71714,10.58063 -9.39378,12.88327 -12.83501,11.04158 -1.92716,-1.03138 -3.4518,-5.33525 -18.02632,-50.88582 -1.45183,-4.537498 -2.88445,-8.249998 -3.1836,-8.249998 -0.29915,0 -5.66554,17.437498 -11.92531,38.749998 -6.25977,21.3125 -12.00763,39.7625 -12.77303,41 -1.61652,2.61361 -4.94322,2.92405 -7.41018,0.69149 -1.04538,-0.94607 -4.79794,-12.50075 -9.54919,-29.40343 l -7.827058,-27.84491 -3.954747,6.65342 c -2.17511,3.65939 -4.438405,6.98404 -5.029544,7.38812 -0.59114,0.40408 -18.486782,0.74158 -39.768095,0.75 l -38.6932977,0.0153 -1.5567,-2.22251 c -2.00333,-2.86015 -1.96422,-3.36998 0.44329,-5.77749 1.78864,-1.78864 3.3333401,-2 14.6166397,-2 h 12.61663 l -0.71894,-2.25 c -0.39542,-1.2375 -0.94745,-6.56819 -1.22675,-11.84599 -1.30031,-24.571314 12.108539,-48.717008 33.712424,-60.706938 9.562805,-5.3072566 17.456826,-7.4333026 27.5,-7.4063986 14.010368,0.03753 21.588558,2.989833 34.940668,13.6121376 l 3.6488,2.902809 3.20526,-3.054212 c 9.08763,-8.6593516 21.09205,-13.2580286 34.56061,-13.2395366 10.07024,0.01383 16.14225,1.438967 25.14466,5.901619 8.53087,4.2289036 14.3176,8.7836886 20.80641,16.3769276 9.51856,11.138648 14.26313,22.119637 16.23405,37.572582 2.26425,17.7528 -5.93002,34.58237 -28.00044,57.5079 -14.07222,14.61745 -34.61612,31.41319 -59.04002,48.26837 -6.325,4.36495 -11.9572,8.21825 -12.516,8.5629 -0.5588,0.34464 -3.9338,-1.43181 -7.5,-3.94768 z"
       id="path4" />
    <path
       style="fill:#ffffff;stroke:none;stroke-width:14;stroke-linejoin:round;stroke-dasharray:none"
       d="m 40.52991,81.989803 -7.808514,0.86761 16.856476,19.955087 9.047962,-7.188787 -13.50997,-14.00575 z"
       id="path5" />
    <path
       style="fill:#ff55dd;stroke:none;stroke-width:12.6;stroke-linejoin:round"
       d="m 37.445571,97.315173 c 18.499007,22.825387 17.902265,21.930277 17.902265,21.930277 l 74.572264,54.91061 63.1366,-48.54909 30.99848,-37.380511 -0.68379,-40.343608 -23.02093,-28.719179 -36.24087,-8.88927 -26.21195,12.30822 -7.29375,3.87481 v 5.470319 L 109.63433,13.465422 72.481737,14.377142 52.195968,31.016031 37.836379,56.544191 Z"
       id="path3" />
    <path
       style="fill:#1a1a1a"
       d="M 123.94911,175.45206 C 96.780552,156.28528 77.486549,140.83932 63.259278,126.86633 52.630035,116.42707 50.753777,113.19356 53.539469,110.11541 c 3.060831,-3.38218 6.137054,-1.54917 19.425643,11.57509 16.717603,16.51086 30.370868,27.42511 50.237828,40.15952 l 7.22054,4.62824 4.02081,-2.27665 c 8.26418,-4.67931 35.77949,-25.3725 45.95712,-34.56256 20.83029,-18.80904 30.51391,-30.249958 37.16827,-43.913268 2.83149,-5.81386 3.39543,-8.08726 3.39543,-13.68794 0,-21.769629 -11.97358,-41.775107 -30.49648,-50.953566 -4.83215,-2.394423 -10.43417,-4.347204 -13.60836,-4.743673 -7.79623,-0.973779 -18.17162,0.376531 -24.18046,3.14698 -6.11447,2.819152 -14.54413,10.148279 -18.81986,16.362842 l -3.02275,4.393412 -4.43485,-6.024323 C 121.15429,27.090533 112.02585,20.07117 104.71358,17.54182 97.283572,14.971743 86.279172,15.192331 77.713757,18.083045 52.859506,26.471022 35.274908,58.470387 42.654614,81.881512 l 1.689503,5.35971 17.968197,-0.27182 17.968197,-0.27183 6.337934,-10.68122 c 3.5908,-6.05153 7.190337,-10.95177 8.304527,-11.3054 4.520912,-1.434884 5.478598,0.49429 12.504598,25.18936 3.72381,13.088488 7.05719,24.330568 7.4075,24.982398 0.35032,0.65182 5.54985,-15.998178 11.55452,-36.999998 11.06716,-38.708338 12.01153,-41.608634 13.97522,-42.919825 2.17279,-1.450808 5.57868,-0.726791 6.9842,1.484687 0.7865,1.2375 5.54805,15.227064 10.58123,31.087918 5.03317,15.86086 9.58826,29.98741 10.12242,31.39234 0.94876,2.495438 1.08045,2.395278 5.7031,-4.33792 l 4.73191,-6.89234 12.19572,-0.28043 c 11.8989,-0.27361 12.23384,-0.22228 13.76141,2.10909 1.57956,2.41072 1.17664,5.47944 -0.90675,6.90603 -0.59012,0.40408 -5.12358,0.74158 -10.07436,0.75 l -9.00143,0.0153 -6.40836,10.094238 c -6.71714,10.58063 -9.39378,12.88327 -12.83501,11.04158 -1.92716,-1.03138 -3.4518,-5.33525 -18.02632,-50.885818 -1.45183,-4.537498 -2.88445,-8.249998 -3.1836,-8.249998 -0.29915,0 -5.66554,17.437498 -11.92531,38.749998 -6.25977,21.312498 -12.00763,39.762498 -12.77303,40.999998 -1.61652,2.61361 -4.94322,2.92405 -7.41018,0.69149 -1.04538,-0.94607 -4.79794,-12.50075 -9.54919,-29.40343 l -7.827058,-27.844908 -3.954747,6.65342 c -2.17511,3.65939 -4.438405,6.98404 -5.029544,7.38812 -0.59114,0.40408 -18.486782,0.74158 -39.768095,0.75 l -38.6932977,0.0153 -1.5567,-2.22251 c -2.00333,-2.86015 -1.96422,-3.36998 0.44329,-5.77749 1.78864,-1.78864 3.3333401,-2 14.6166397,-2 h 12.61663 l -0.71894,-2.25 c -0.39542,-1.2375 -0.94745,-6.56819 -1.22675,-11.84599 -1.30031,-24.571314 12.108539,-48.717008 33.712424,-60.706938 9.562805,-5.3072569 17.456826,-7.4333029 27.5,-7.4063989 14.010368,0.03753 21.588558,2.989833 34.940668,13.6121379 l 3.6488,2.902809 3.20526,-3.054212 c 9.08763,-8.6593519 21.09205,-13.2580289 34.56061,-13.2395369 10.07024,0.01383 16.14225,1.438967 25.14466,5.9016189 8.53087,4.228904 14.3176,8.783689 20.80641,16.376928 9.51856,11.138648 14.26313,22.119637 16.23405,37.572582 2.26425,17.7528 -5.93002,34.58237 -28.00044,57.507898 -14.07222,14.61745 -34.61612,31.41319 -59.04002,48.26837 -6.325,4.36495 -11.9572,8.21825 -12.516,8.5629 -0.5588,0.34464 -3.9338,-1.43181 -7.5,-3.94768 z"
       id="path1" />
  </g>
</svg>
