<?xml version="1.0" encoding="UTF-8" standalone="no"?>
<!-- Created with Inkscape (http://www.inkscape.org/) -->

<svg
   version="1.1"
   id="svg1"
   width="197.04486"
   height="195.98103"
   viewBox="0 0 197.04486 195.98104"
   sodipodi:docname="StudyAmplify-02.svg"
   inkscape:version="1.4.2 (f4327f4, 2025-05-13)"
   xmlns:inkscape="http://www.inkscape.org/namespaces/inkscape"
   xmlns:sodipodi="http://sodipodi.sourceforge.net/DTD/sodipodi-0.dtd"
   xmlns="http://www.w3.org/2000/svg"
   xmlns:svg="http://www.w3.org/2000/svg">
  <defs
     id="defs1" />
  <sodipodi:namedview
     id="namedview1"
     pagecolor="#d2d2d2"
     bordercolor="#000000"
     borderopacity="0.25"
     inkscape:showpageshadow="2"
     inkscape:pageopacity="0.0"
     inkscape:pagecheckerboard="0"
     inkscape:deskcolor="#d1d1d1"
     inkscape:zoom="2.0175"
     inkscape:cx="98.884758"
     inkscape:cy="97.893432"
     inkscape:window-width="1904"
     inkscape:window-height="993"
     inkscape:window-x="52"
     inkscape:window-y="0"
     inkscape:window-maximized="0"
     inkscape:current-layer="g1">
    <inkscape:page
       x="0"
       y="0"
       width="197.04486"
       height="195.98103"
       id="page2"
       margin="0"
       bleed="0" />
  </sodipodi:namedview>
  <g
     inkscape:groupmode="layer"
     inkscape:label="Image"
     id="g1"
     transform="translate(-4.2600254,-4.2709174)">
    <path
       d="m 102.51367,11.773438 c -71.654424,-0.02104 -74.945378,0.05831 -78.499998,1.886718 -5.12165,2.634455 -8.851275,6.822291 -10.671875,11.982422 -1.31695,3.73263 -1.537109,12.681135 -1.537109,62.056641 v 57.695311 l 2.75,5.42188 c 1.799299,3.54831 4.247241,6.46275 7.082031,8.42968 l 4.332031,3.00586 22.259766,0.5 22.257812,0.5 -1.931641,7.19141 c -1.74675,6.50081 -2.210533,7.25063 -4.839843,7.82812 -5.576771,1.22486 -7.864137,8.52649 -3.910157,12.48047 1.934961,1.935 3.333334,2 43.000003,2 39.66667,0 41.06504,-0.065 43,-2 3.93708,-3.93708 1.6685,-11.25333 -3.86524,-12.46875 -2.57059,-0.56459 -3.05996,-1.36214 -4.8164,-7.83008 l -1.95508,-7.20117 22.23437,-0.5 22.23633,-0.5 4.28906,-3.01758 c 2.6743,-1.88112 5.34235,-5.0294 7.08399,-8.36328 l 2.79297,-5.34765 -0.006,-57.634768 c -0.004,-37.133103 -0.37886,-58.980435 -1.05469,-61.414063 -1.3651,-4.915708 -6.39015,-10.567118 -11.43164,-12.857421 -3.76144,-1.708785 -8.61997,-1.82314 -78.79883,-1.84375 z"
       style="stroke:#ffffff;stroke-width:15;stroke-dasharray:none"
       id="path17" />
    <path
       style="fill:#66ff00;stroke:#000000;stroke-width:1px;stroke-linecap:butt;stroke-linejoin:miter;stroke-opacity:1"
       d="m 79.209979,156.31704 c -0.350487,2.80389 -5.2573,27.33796 -5.2573,27.33796 l 58.881751,3.15438 -2.4534,-31.19332 z"
       id="path15" />
    <path
       style="fill:#00ccff;stroke:#000000;stroke-width:1px;stroke-linecap:butt;stroke-linejoin:miter;stroke-opacity:1"
       d="m 22.080658,126.52567 2.453406,25.58553 152.461686,3.15438 13.31849,-18.92628 -1.05146,-13.66898 z"
       id="path14" />
    <path
       style="fill:#d7eef4;stroke:#000000;stroke-width:1px;stroke-linecap:butt;stroke-linejoin:miter;stroke-opacity:1"
       d="M 25.526642,22.304833 23.54399,122.42875 189.83891,125.40273 180.42131,19.826518 Z"
       id="path13" />
    <path
       style="fill:#000000"
       d="m 59.803894,190.75243 c -3.95398,-3.95398 -1.66605,-11.25553 3.910721,-12.48039 2.62931,-0.57749 3.09353,-1.32837 4.84028,-7.82918 l 1.93204,-7.19043 -22.258911,-0.5 -22.25892,-0.5 -4.33261,-3.00619 c -2.83479,-1.96693 -5.2833,-4.881 -7.0826,-8.42931 l -2.75,-5.42313 V 87.698846 c 0,-49.375506 0.2219,-58.323884 1.53885,-62.056514 1.8206,-5.160131 5.54966,-9.347027 10.67131,-11.981482 3.55462,-1.828411 6.84557,-1.907496 78.499996,-1.886455 70.17886,0.02061 75.03699,0.134235 78.79843,1.84302 5.04149,2.290303 10.06619,7.941976 11.43129,12.857684 0.67583,2.433628 1.05096,24.280044 1.05455,61.413147 l 0.006,57.635804 -2.79337,5.34711 c -1.74164,3.33388 -4.4083,6.48307 -7.0826,8.36419 l -4.28924,3.01708 -22.23583,0.5 -22.23583,0.5 1.9554,7.20063 c 1.75644,6.46794 2.2466,7.26459 4.81719,7.82918 5.53374,1.21542 7.80135,8.53311 3.86427,12.47019 -1.93496,1.93496 -3.33333,2 -43,2 -39.666666,0 -41.065036,-0.065 -42.999996,-2 z m 62.999996,-14.04448 c 0,-0.57447 -0.72971,-3.94947 -1.62157,-7.5 l -1.62158,-6.45552 H 102.80389 86.047048 l -1.62158,6.45552 c -0.89186,3.55053 -1.621569,6.92553 -1.621569,7.5 0,0.69116 6.765469,1.04448 19.999991,1.04448 13.23453,0 20,-0.35332 20,-1.04448 z m 53.48535,-30.32114 c 1.36432,-0.99762 1.98717,-3.01871 2.31132,-7.5 l 0.44372,-6.13438 h -76.1202 -76.120186 v 4.56574 c 0,4.54942 1.3093,8.27315 3.3997,9.66895 0.60517,0.40408 33.301791,0.74158 72.659166,0.75 58.91813,0.0126 71.88879,-0.22592 73.42648,-1.35031 z m 2.51466,-72.634374 c 0,-41.666669 -0.062,-43.062018 -2,-45.000003 -1.96319,-1.96319 -3.33333,-2 -74.44331,-2 H 29.917304 l -1.55671,2.222506 c -1.35004,1.927455 -1.5567,7.901496 -1.5567,44.999997 V 116.75243 H 102.80389 178.8039 Z M 60.438754,107.67985 c -2.35192,-1.85002 -2.63486,-2.754 -2.63486,-8.418214 0,-7.86613 0.49881,-9.19867 4.15017,-11.08686 5.461331,-2.82416 10.803441,1.94768 10.835091,9.67843 0.0415,10.138584 -5.92185,14.883344 -12.350401,9.826644 z m 29.819684,-0.38197 c -2.29049,-2.2905 -2.45454,-3.14768 -2.45454,-12.825684 0,-9.54786 0.18372,-10.54374 2.31445,-12.54545 3.27496,-3.07666 7.991605,-2.87199 10.612962,0.46055 1.78011,2.26304 2.07258,4.03336 2.07258,12.54545 0,9.189024 -0.17871,10.089304 -2.45454,12.365134 -1.349997,1.35 -3.620452,2.45455 -5.045452,2.45455 -1.425,0 -3.69546,-1.10455 -5.04546,-2.45455 z m 30.545452,0.48944 -2.5,-1.92064 V 79.914546 c 0,-24.117352 0.13468,-26.100957 1.90499,-28.057124 2.57413,-2.844387 7.86729,-2.802481 10.55605,0.08357 1.94245,2.084971 2.03896,3.406897 2.03896,27.927424 v 25.738854 l -2.63486,2.07258 c -3.26549,2.56864 -6.11894,2.60138 -9.36514,0.10747 z m 30.17431,-0.34934 c -2.14317,-2.2813 -2.17431,-2.79471 -2.17431,-35.845014 0,-32.332223 0.0719,-33.59566 2.01291,-35.352211 2.58076,-2.335559 7.39342,-2.335559 9.97418,0 1.94168,1.757192 2.01291,3.019316 2.01291,35.666671 0,32.511674 -0.0788,33.923794 -2,35.845004 -2.69767,2.69767 -7.12918,2.55585 -9.82569,-0.31445 z M 44.992454,84.713476 c -1.47461,-1.37381 -2.18856,-3.22252 -2.18856,-5.66707 0,-3.31437 1.14174,-4.78117 13.2023,-16.961049 L 69.208485,48.752434 h -3.70229 c -6.835791,0 -10.092081,-6.823615 -5.792961,-12.139216 1.81539,-2.244614 2.59579,-2.376685 15.859221,-2.683912 13.555123,-0.313985 14.029813,-0.254371 16.774643,2.106628 l 2.82476,2.429756 -0.24986,14.393372 c -0.22688,13.069617 -0.44377,14.600304 -2.35829,16.643372 -4.24913,4.534422 -11.340153,1.726612 -12.401483,-4.910565 l -0.62698,-3.920923 -13.26462,13.04074 c -14.333651,14.09174 -16.666701,15.29803 -21.278171,11.00179 z"
       id="path1" />
    <rect
       style="fill:#d4aa00;fill-opacity:0;stroke:none;stroke-width:5.2"
       id="rect1"
       width="10.865086"
       height="71.148788"
       x="149.65779"
       y="40.305962" />
    <rect
       style="fill:#d4aa00;fill-opacity:0;stroke:none;stroke-width:5.2"
       id="rect2"
       width="35.048664"
       height="59.933212"
       x="144.75098"
       y="46.264236" />
    <ellipse
       style="fill:#d4aa00;fill-opacity:0;stroke:none;stroke-width:5.2"
       id="path2"
       cx="136.68979"
       cy="33.997204"
       rx="12.617518"
       ry="12.968005" />
    <rect
       style="fill:#d4aa00;fill-opacity:0;stroke:none;stroke-width:5.2"
       id="rect3"
       width="15.421412"
       height="73.602196"
       x="150.70926"
       y="36.100124" />
    <rect
       style="fill:#d4aa00;fill-opacity:0;stroke:none;stroke-width:5.2"
       id="rect4"
       width="28.739904"
       height="56.428349"
       x="134.23637"
       y="42.058395" />
    <rect
       style="fill:#0055d4;fill-rule:evenodd;stroke-width:1.0683;paint-order:stroke fill markers"
       id="rect5"
       width="18"
       height="76.055603"
       x="148.25584"
       y="33.93327"
       ry="5.6253972" />
    <rect
       style="fill:#0055d4;fill-rule:evenodd;stroke-width:0.959365;paint-order:stroke fill markers"
       id="rect6"
       width="18"
       height="61.335163"
       x="118.114"
       y="48.653709"
       ry="5.9356608"
       inkscape:transform-center-x="-28.800001"
       inkscape:transform-center-y="0.84795222" />
    <rect
       style="fill:#0055d4;fill-rule:evenodd;stroke-width:0.691807;paint-order:stroke fill markers"
       id="rect7"
       width="18"
       height="31.894287"
       x="87.621658"
       y="78.094582"
       ry="5.4409356"
       inkscape:transform-center-x="-28.800001"
       inkscape:transform-center-y="0.44093113" />
    <rect
       style="fill:#0055d4;fill-rule:evenodd;stroke-width:0.619621;paint-order:stroke fill markers"
       id="rect8"
       width="18"
       height="25.585527"
       x="57.479809"
       y="84.403343"
       ry="5.4500003"
       inkscape:transform-center-x="-28.800001"
       inkscape:transform-center-y="0.35371532" />
    <rect
       style="fill:#0044aa;fill-rule:evenodd;stroke-width:1.06096"
       id="rect9"
       width="18"
       height="55.514248"
       x="81.649544"
       y="-24.639553"
       ry="6.3321056"
       transform="rotate(44.877615)" />
    <rect
       style="fill:#0044aa;fill-rule:evenodd;stroke-width:1.05625"
       id="rect10"
       width="16.734819"
       height="38.166046"
       x="78.81041"
       y="33.705078"
       ry="6.3321056" />
    <rect
       style="fill:#0044aa;fill-rule:evenodd;stroke-width:1.03879"
       id="rect11"
       width="15.978642"
       height="38.66153"
       x="34.25153"
       y="-94.929451"
       ry="6.4143114"
       transform="matrix(0.0072256,0.9999739,-0.99996808,0.00799042,0,0)" />
    <path
       style="fill:none;stroke:#000000;stroke-width:1px;stroke-linecap:butt;stroke-linejoin:miter;stroke-opacity:1"
       d="m 24.535316,25.526642 c 0,1.239157 -2.726146,91.945478 -2.726146,91.945478 l 67.162329,9.16976 77.571251,-4.21313 19.08302,0.49566 -2.47831,-99.132588 -74.10161,-4.95663 z"
       id="path11" />
    <path
       style="fill:#2a7fff;fill-opacity:0;stroke:none;stroke-width:1.28872;paint-order:stroke fill markers"
       d="m 26.968018,77.261462 c 0.128153,-38.228493 0.247725,-44.183547 0.93869,-46.749594 0.149535,-0.555332 0.678911,-1.601591 1.176391,-2.325018 l 0.904509,-1.315324 69.144982,0.09792 c 68.93394,0.09762 72.8695,0.146051 75.79083,0.932683 1.30607,0.351688 2.52921,1.591989 2.88951,2.930055 0.62406,2.31758 0.73925,9.578972 0.74434,46.924941 l 0.005,38.847585 H 102.69935 26.836128 Z m 45.838027,32.080478 c 1.48509,-0.87296 2.332976,-2.13843 2.67598,-3.9939 0.166946,-0.90311 0.23716,-4.34285 0.186961,-9.159222 -0.07659,-7.348746 -0.105648,-7.759794 -0.615311,-8.704307 -0.622428,-1.15349 -1.615313,-2.13234 -2.736535,-2.697854 -0.652005,-0.328853 -1.685497,-0.40004 -5.807752,-0.40004 -4.579903,0 -5.107348,0.0449 -6.084478,0.517916 -1.278719,0.619018 -2.380945,1.884944 -2.769041,3.180295 -0.379336,1.266114 -0.386962,16.852992 -0.0089,18.234872 0.350726,1.28204 2.279303,3.18376 3.594448,3.54439 0.557596,0.1529 2.950305,0.24517 5.673103,0.21876 4.675767,-0.0454 4.717096,-0.0505 5.891547,-0.74091 z m 29.073985,0.45492 c 0.78151,-0.23208 1.55774,-0.70415 2.13945,-1.30112 1.71567,-1.76065 1.68126,-1.46284 1.6752,-14.497693 -0.006,-12.947576 0.0126,-12.782612 -1.6268,-14.405197 -1.48912,-1.473836 -1.74224,-1.525936 -7.413605,-1.525936 h -5.204461 l -1.182748,0.695237 c -0.650513,0.382379 -1.486945,1.154783 -1.858736,1.716454 l -0.675988,1.021219 -0.06876,12.255688 c -0.06771,12.069178 -0.06073,12.272278 0.459075,13.346048 0.587899,1.21443 1.738062,2.20536 3.140778,2.70594 1.352925,0.48281 8.980715,0.47516 10.616595,-0.0106 z m 30.99297,-0.3155 c 1.29482,-0.68399 2.6492,-2.25144 3.02277,-3.49832 0.4257,-1.42087 0.40915,-51.988326 -0.0175,-53.412304 -0.17639,-0.588709 -0.77762,-1.506393 -1.42504,-2.175063 -1.66188,-1.716449 -2.94546,-2.020243 -8.02256,-1.898745 -4.44597,0.106395 -5.19336,0.324413 -6.77749,1.977018 -1.65727,1.728924 -1.5615,-0.04714 -1.5615,28.957955 0,25.335119 0.0171,26.321419 0.47075,27.210709 0.79805,1.56431 2.19351,2.71843 3.98861,3.2988 0.34165,0.11046 2.57286,0.17416 4.95823,0.14155 3.91713,-0.0535 4.43646,-0.11178 5.36371,-0.6016 z m 29.54921,0.29433 c 0.85168,-0.25293 1.63051,-0.71812 2.2657,-1.35332 1.84739,-1.84739 1.74584,0.40289 1.67249,-37.060489 l -0.0655,-33.443665 -0.5335,-0.991326 c -0.6855,-1.27376 -1.42486,-1.952434 -2.81223,-2.581405 -0.99248,-0.449949 -1.62184,-0.506202 -5.71764,-0.511046 -4.53481,-0.0054 -4.62213,0.0046 -5.94642,0.676094 -1.50781,0.764591 -2.60999,2.128722 -2.96832,3.673779 -0.12949,0.558321 -0.2282,14.976446 -0.23159,33.827708 -0.005,28.54688 0.043,33.01937 0.36717,34.11097 0.48089,1.6193 1.99054,3.16698 3.56083,3.65051 1.67167,0.51474 8.67808,0.51621 10.40899,0.002 z M 51.02453,89.302513 c 0.876015,-0.247812 2.971388,-2.233403 14.836684,-14.059331 7.599133,-7.573923 13.822283,-13.605777 13.829222,-13.404124 0.0069,0.201653 0.103348,1.541832 0.214238,2.978174 0.218357,2.82831 0.562925,3.79077 1.845499,5.154919 1.362551,1.449207 2.460305,1.859908 5.278444,1.974803 4.043804,0.164868 6.069346,-0.818448 7.441381,-3.612483 l 0.697288,-1.419973 0.07492,-14.152959 0.07492,-14.152959 -0.888473,-1.515949 C 93.483757,35.480416 92.525522,34.606255 90.94081,33.910808 90.045497,33.517902 88.789651,33.487 76.084263,33.545251 c -15.381329,0.07052 -15.585906,0.08979 -17.395029,1.638327 -0.563663,0.482475 -1.285576,1.406669 -1.60425,2.053764 -0.505529,1.026519 -0.579408,1.539941 -0.579408,4.026599 0,2.697751 0.03939,2.921187 0.737145,4.180978 1.294625,2.337452 2.988645,3.232595 6.573884,3.473728 l 2.354399,0.15835 -13.135068,13.194859 c -9.030125,9.071232 -13.328698,13.560523 -13.754647,14.364917 -0.816457,1.541856 -0.848852,4.148526 -0.07013,5.643277 0.737983,1.416557 6.171588,6.649345 7.257244,6.989028 1.177146,0.36831 3.316842,0.38401 4.556129,0.03344 z"
       id="path12" />
  </g>
</svg>
